  0
SECTION
  2
HEADER
  9
$ACADVER
  1
AC1009
  9
$FILLMODE
 70
 0
  9
$SPLFRAME
 70
 1
  9
$EXTMIN
 10
0
 20
0
 30
0.0
  9
$EXTMAX
 10
1058.33
 20
1058.33
 30
0.0
  0
ENDSEC
  0
SECTION
  2
TABLES
  0
TABLE
  2
LAYER
 70
1
  0
LAYER
  2
0
 70
     0
 62
     7
  6
CONTINUOUS
  0
ENDTAB
  0
ENDSEC
  0
SECTION
  2
ENTITIES
  0
LINE
  8
0
 62
     0
 10
0.0950846
 20
40.1602
 30
0.0
 11
0.0950846
 21
83.1603
 31
0.0
  0
LINE
  8
0
 62
     0
 10
0.0950846
 20
83.1603
 30
0.0
 11
148.095
 21
83.1603
 31
0.0
  0
LINE
  8
0
 62
     0
 10
148.095
 20
83.1603
 30
0.0
 11
148.095
 21
40.1602
 31
0.0
  0
LINE
  8
0
 62
     0
 10
148.095
 20
40.1602
 30
0.0
 11
125.096
 21
0.159852
 31
0.0
  0
LINE
  8
0
 62
     0
 10
125.096
 20
0.159852
 30
0.0
 11
23.0945
 21
0.159852
 31
0.0
  0
LINE
  8
0
 62
     0
 10
23.0945
 20
0.159852
 30
0.0
 11
0.0950846
 21
40.1602
 31
0.0
  0
LINE
  8
0
 62
     0
 10
38.5946
 20
19.8355
 30
0.0
 11
38.5946
 21
18.8364
 31
0.0
  0
LINE
  8
0
 62
     0
 10
38.5946
 20
18.8364
 30
0.0
 11
37.7941
 21
18.8364
 31
0.0
  0
LINE
  8
0
 62
     0
 10
37.7941
 20
18.8364
 30
0.0
 11
37.7941
 21
15.886
 31
0.0
  0
LINE
  8
0
 62
     0
 10
37.7941
 20
15.886
 30
0.0
 11
38.5946
 21
15.886
 31
0.0
  0
LINE
  8
0
 62
     0
 10
38.5946
 20
15.886
 30
0.0
 11
38.5946
 21
15.1364
 31
0.0
  0
LINE
  8
0
 62
     0
 10
38.5946
 20
15.1364
 30
0.0
 11
36.9189
 21
15.1364
 31
0.0
  0
LINE
  8
0
 62
     0
 10
36.9189
 20
15.1364
 30
0.0
 11
36.9189
 21
18.3665
 31
0.0
  0
LINE
  8
0
 62
     0
 10
36.9189
 20
18.3665
 30
0.0
 11
35.1937
 21
18.3665
 31
0.0
  0
LINE
  8
0
 62
     0
 10
35.1937
 20
18.3665
 30
0.0
 11
35.1937
 21
19.2857
 31
0.0
  0
LINE
  8
0
 62
     0
 10
35.1937
 20
19.2857
 30
0.0
 11
32.0435
 21
19.2857
 31
0.0
  0
LINE
  8
0
 62
     0
 10
32.0435
 20
19.2857
 30
0.0
 11
32.0435
 21
18.3665
 31
0.0
  0
LINE
  8
0
 62
     0
 10
32.0435
 20
18.3665
 30
0.0
 11
30.3182
 21
18.3665
 31
0.0
  0
LINE
  8
0
 62
     0
 10
30.3182
 20
18.3665
 30
0.0
 11
30.3182
 21
15.1364
 31
0.0
  0
LINE
  8
0
 62
     0
 10
30.3182
 20
15.1364
 30
0.0
 11
29.4942
 21
15.1364
 31
0.0
  0
LINE
  8
0
 62
     0
 10
29.4942
 20
15.1364
 30
0.0
 11
29.4942
 21
12.4864
 31
0.0
  0
LINE
  8
0
 62
     0
 10
29.4942
 20
12.4864
 30
0.0
 11
30.3182
 21
12.4864
 31
0.0
  0
LINE
  8
0
 62
     0
 10
30.3182
 20
12.4864
 30
0.0
 11
30.3182
 21
6.21633
 31
0.0
  0
LINE
  8
0
 62
     0
 10
30.3182
 20
6.21633
 30
0.0
 11
32.0435
 21
6.21633
 31
0.0
  0
LINE
  8
0
 62
     0
 10
32.0435
 20
6.21633
 30
0.0
 11
32.0435
 21
5.23656
 31
0.0
  0
LINE
  8
0
 62
     0
 10
32.0435
 20
5.23656
 30
0.0
 11
35.1937
 21
5.23656
 31
0.0
  0
LINE
  8
0
 62
     0
 10
35.1937
 20
5.23656
 30
0.0
 11
35.1937
 21
6.21633
 31
0.0
  0
LINE
  8
0
 62
     0
 10
35.1937
 20
6.21633
 30
0.0
 11
36.9189
 21
6.21633
 31
0.0
  0
LINE
  8
0
 62
     0
 10
36.9189
 20
6.21633
 30
0.0
 11
36.9189
 21
10.6867
 31
0.0
  0
LINE
  8
0
 62
     0
 10
36.9189
 20
10.6867
 30
0.0
 11
38.5946
 21
10.6867
 31
0.0
  0
LINE
  8
0
 62
     0
 10
38.5946
 20
10.6867
 30
0.0
 11
38.5946
 21
9.93567
 31
0.0
  0
LINE
  8
0
 62
     0
 10
38.5946
 20
9.93567
 30
0.0
 11
37.7941
 21
9.93567
 31
0.0
  0
LINE
  8
0
 62
     0
 10
37.7941
 20
9.93567
 30
0.0
 11
37.7941
 21
6.98666
 31
0.0
  0
LINE
  8
0
 62
     0
 10
37.7941
 20
6.98666
 30
0.0
 11
38.5946
 21
6.98666
 31
0.0
  0
LINE
  8
0
 62
     0
 10
38.5946
 20
6.98666
 30
0.0
 11
38.5946
 21
5.98622
 31
0.0
  0
LINE
  8
0
 62
     0
 10
38.5946
 20
5.98622
 30
0.0
 11
52.4439
 21
5.98622
 31
0.0
  0
LINE
  8
0
 62
     0
 10
52.4439
 20
5.98622
 30
0.0
 11
52.4439
 21
6.98666
 31
0.0
  0
LINE
  8
0
 62
     0
 10
52.4439
 20
6.98666
 30
0.0
 11
53.2447
 21
6.98666
 31
0.0
  0
LINE
  8
0
 62
     0
 10
53.2447
 20
6.98666
 30
0.0
 11
53.2447
 21
9.93567
 31
0.0
  0
LINE
  8
0
 62
     0
 10
53.2447
 20
9.93567
 30
0.0
 11
52.4439
 21
9.93567
 31
0.0
  0
LINE
  8
0
 62
     0
 10
52.4439
 20
9.93567
 30
0.0
 11
52.4439
 21
10.6867
 31
0.0
  0
LINE
  8
0
 62
     0
 10
52.4439
 20
10.6867
 30
0.0
 11
54.1196
 21
10.6867
 31
0.0
  0
LINE
  8
0
 62
     0
 10
54.1196
 20
10.6867
 30
0.0
 11
54.1196
 21
6.21633
 31
0.0
  0
LINE
  8
0
 62
     0
 10
54.1196
 20
6.21633
 30
0.0
 11
55.8451
 21
6.21633
 31
0.0
  0
LINE
  8
0
 62
     0
 10
55.8451
 20
6.21633
 30
0.0
 11
55.8451
 21
5.23656
 31
0.0
  0
LINE
  8
0
 62
     0
 10
55.8451
 20
5.23656
 30
0.0
 11
58.994
 21
5.23656
 31
0.0
  0
LINE
  8
0
 62
     0
 10
58.994
 20
5.23656
 30
0.0
 11
58.994
 21
6.21633
 31
0.0
  0
LINE
  8
0
 62
     0
 10
58.994
 20
6.21633
 30
0.0
 11
60.7191
 21
6.21633
 31
0.0
  0
LINE
  8
0
 62
     0
 10
60.7191
 20
6.21633
 30
0.0
 11
60.7191
 21
12.4864
 31
0.0
  0
LINE
  8
0
 62
     0
 10
60.7191
 20
12.4864
 30
0.0
 11
61.5446
 21
12.4864
 31
0.0
  0
LINE
  8
0
 62
     0
 10
61.5446
 20
12.4864
 30
0.0
 11
61.5446
 21
15.1364
 31
0.0
  0
LINE
  8
0
 62
     0
 10
61.5446
 20
15.1364
 30
0.0
 11
60.7191
 21
15.1364
 31
0.0
  0
LINE
  8
0
 62
     0
 10
60.7191
 20
15.1364
 30
0.0
 11
60.7191
 21
18.3665
 31
0.0
  0
LINE
  8
0
 62
     0
 10
60.7191
 20
18.3665
 30
0.0
 11
58.994
 21
18.3665
 31
0.0
  0
LINE
  8
0
 62
     0
 10
58.994
 20
18.3665
 30
0.0
 11
58.994
 21
19.2857
 31
0.0
  0
LINE
  8
0
 62
     0
 10
58.994
 20
19.2857
 30
0.0
 11
55.8451
 21
19.2857
 31
0.0
  0
LINE
  8
0
 62
     0
 10
55.8451
 20
19.2857
 30
0.0
 11
55.8451
 21
18.3665
 31
0.0
  0
LINE
  8
0
 62
     0
 10
55.8451
 20
18.3665
 30
0.0
 11
54.1196
 21
18.3665
 31
0.0
  0
LINE
  8
0
 62
     0
 10
54.1196
 20
18.3665
 30
0.0
 11
54.1196
 21
15.1364
 31
0.0
  0
LINE
  8
0
 62
     0
 10
54.1196
 20
15.1364
 30
0.0
 11
52.4439
 21
15.1364
 31
0.0
  0
LINE
  8
0
 62
     0
 10
52.4439
 20
15.1364
 30
0.0
 11
52.4439
 21
15.886
 31
0.0
  0
LINE
  8
0
 62
     0
 10
52.4439
 20
15.886
 30
0.0
 11
53.2447
 21
15.886
 31
0.0
  0
LINE
  8
0
 62
     0
 10
53.2447
 20
15.886
 30
0.0
 11
53.2447
 21
18.8364
 31
0.0
  0
LINE
  8
0
 62
     0
 10
53.2447
 20
18.8364
 30
0.0
 11
52.4439
 21
18.8364
 31
0.0
  0
LINE
  8
0
 62
     0
 10
52.4439
 20
18.8364
 30
0.0
 11
52.4439
 21
19.8355
 31
0.0
  0
LINE
  8
0
 62
     0
 10
52.4439
 20
19.8355
 30
0.0
 11
38.5946
 21
19.8355
 31
0.0
  0
LINE
  8
0
 62
     0
 10
95.7446
 20
19.8355
 30
0.0
 11
95.7446
 21
18.8364
 31
0.0
  0
LINE
  8
0
 62
     0
 10
95.7446
 20
18.8364
 30
0.0
 11
94.9441
 21
18.8364
 31
0.0
  0
LINE
  8
0
 62
     0
 10
94.9441
 20
18.8364
 30
0.0
 11
94.9441
 21
15.886
 31
0.0
  0
LINE
  8
0
 62
     0
 10
94.9441
 20
15.886
 30
0.0
 11
95.7446
 21
15.886
 31
0.0
  0
LINE
  8
0
 62
     0
 10
95.7446
 20
15.886
 30
0.0
 11
95.7446
 21
15.1364
 31
0.0
  0
LINE
  8
0
 62
     0
 10
95.7446
 20
15.1364
 30
0.0
 11
94.0689
 21
15.1364
 31
0.0
  0
LINE
  8
0
 62
     0
 10
94.0689
 20
15.1364
 30
0.0
 11
94.0689
 21
18.3665
 31
0.0
  0
LINE
  8
0
 62
     0
 10
94.0689
 20
18.3665
 30
0.0
 11
92.3452
 21
18.3665
 31
0.0
  0
LINE
  8
0
 62
     0
 10
92.3452
 20
18.3665
 30
0.0
 11
92.3452
 21
19.2857
 31
0.0
  0
LINE
  8
0
 62
     0
 10
92.3452
 20
19.2857
 30
0.0
 11
89.1949
 21
19.2857
 31
0.0
  0
LINE
  8
0
 62
     0
 10
89.1949
 20
19.2857
 30
0.0
 11
89.1949
 21
18.3665
 31
0.0
  0
LINE
  8
0
 62
     0
 10
89.1949
 20
18.3665
 30
0.0
 11
87.4695
 21
18.3665
 31
0.0
  0
LINE
  8
0
 62
     0
 10
87.4695
 20
18.3665
 30
0.0
 11
87.4695
 21
15.1364
 31
0.0
  0
LINE
  8
0
 62
     0
 10
87.4695
 20
15.1364
 30
0.0
 11
86.644
 21
15.1364
 31
0.0
  0
LINE
  8
0
 62
     0
 10
86.644
 20
15.1364
 30
0.0
 11
86.644
 21
12.4864
 31
0.0
  0
LINE
  8
0
 62
     0
 10
86.644
 20
12.4864
 30
0.0
 11
87.4695
 21
12.4864
 31
0.0
  0
LINE
  8
0
 62
     0
 10
87.4695
 20
12.4864
 30
0.0
 11
87.4695
 21
6.21633
 31
0.0
  0
LINE
  8
0
 62
     0
 10
87.4695
 20
6.21633
 30
0.0
 11
89.1949
 21
6.21633
 31
0.0
  0
LINE
  8
0
 62
     0
 10
89.1949
 20
6.21633
 30
0.0
 11
89.1949
 21
5.23656
 31
0.0
  0
LINE
  8
0
 62
     0
 10
89.1949
 20
5.23656
 30
0.0
 11
92.3452
 21
5.23656
 31
0.0
  0
LINE
  8
0
 62
     0
 10
92.3452
 20
5.23656
 30
0.0
 11
92.3452
 21
6.21633
 31
0.0
  0
LINE
  8
0
 62
     0
 10
92.3452
 20
6.21633
 30
0.0
 11
94.0689
 21
6.21633
 31
0.0
  0
LINE
  8
0
 62
     0
 10
94.0689
 20
6.21633
 30
0.0
 11
94.0689
 21
10.6867
 31
0.0
  0
LINE
  8
0
 62
     0
 10
94.0689
 20
10.6867
 30
0.0
 11
95.7446
 21
10.6867
 31
0.0
  0
LINE
  8
0
 62
     0
 10
95.7446
 20
10.6867
 30
0.0
 11
95.7446
 21
9.93567
 31
0.0
  0
LINE
  8
0
 62
     0
 10
95.7446
 20
9.93567
 30
0.0
 11
94.9441
 21
9.93567
 31
0.0
  0
LINE
  8
0
 62
     0
 10
94.9441
 20
9.93567
 30
0.0
 11
94.9441
 21
6.98666
 31
0.0
  0
LINE
  8
0
 62
     0
 10
94.9441
 20
6.98666
 30
0.0
 11
95.7446
 21
6.98666
 31
0.0
  0
LINE
  8
0
 62
     0
 10
95.7446
 20
6.98666
 30
0.0
 11
95.7446
 21
5.98622
 31
0.0
  0
LINE
  8
0
 62
     0
 10
95.7446
 20
5.98622
 30
0.0
 11
109.594
 21
5.98622
 31
0.0
  0
LINE
  8
0
 62
     0
 10
109.594
 20
5.98622
 30
0.0
 11
109.594
 21
6.98666
 31
0.0
  0
LINE
  8
0
 62
     0
 10
109.594
 20
6.98666
 30
0.0
 11
110.395
 21
6.98666
 31
0.0
  0
LINE
  8
0
 62
     0
 10
110.395
 20
6.98666
 30
0.0
 11
110.395
 21
9.93567
 31
0.0
  0
LINE
  8
0
 62
     0
 10
110.395
 20
9.93567
 30
0.0
 11
109.594
 21
9.93567
 31
0.0
  0
LINE
  8
0
 62
     0
 10
109.594
 20
9.93567
 30
0.0
 11
109.594
 21
10.6867
 31
0.0
  0
LINE
  8
0
 62
     0
 10
109.594
 20
10.6867
 30
0.0
 11
111.27
 21
10.6867
 31
0.0
  0
LINE
  8
0
 62
     0
 10
111.27
 20
10.6867
 30
0.0
 11
111.27
 21
6.21633
 31
0.0
  0
LINE
  8
0
 62
     0
 10
111.27
 20
6.21633
 30
0.0
 11
112.995
 21
6.21633
 31
0.0
  0
LINE
  8
0
 62
     0
 10
112.995
 20
6.21633
 30
0.0
 11
112.995
 21
5.23656
 31
0.0
  0
LINE
  8
0
 62
     0
 10
112.995
 20
5.23656
 30
0.0
 11
116.144
 21
5.23656
 31
0.0
  0
LINE
  8
0
 62
     0
 10
116.144
 20
5.23656
 30
0.0
 11
116.144
 21
6.21633
 31
0.0
  0
LINE
  8
0
 62
     0
 10
116.144
 20
6.21633
 30
0.0
 11
117.869
 21
6.21633
 31
0.0
  0
LINE
  8
0
 62
     0
 10
117.869
 20
6.21633
 30
0.0
 11
117.869
 21
12.4864
 31
0.0
  0
LINE
  8
0
 62
     0
 10
117.869
 20
12.4864
 30
0.0
 11
118.695
 21
12.4864
 31
0.0
  0
LINE
  8
0
 62
     0
 10
118.695
 20
12.4864
 30
0.0
 11
118.695
 21
15.1364
 31
0.0
  0
LINE
  8
0
 62
     0
 10
118.695
 20
15.1364
 30
0.0
 11
117.869
 21
15.1364
 31
0.0
  0
LINE
  8
0
 62
     0
 10
117.869
 20
15.1364
 30
0.0
 11
117.869
 21
18.3665
 31
0.0
  0
LINE
  8
0
 62
     0
 10
117.869
 20
18.3665
 30
0.0
 11
116.144
 21
18.3665
 31
0.0
  0
LINE
  8
0
 62
     0
 10
116.144
 20
18.3665
 30
0.0
 11
116.144
 21
19.2857
 31
0.0
  0
LINE
  8
0
 62
     0
 10
116.144
 20
19.2857
 30
0.0
 11
112.995
 21
19.2857
 31
0.0
  0
LINE
  8
0
 62
     0
 10
112.995
 20
19.2857
 30
0.0
 11
112.995
 21
18.3665
 31
0.0
  0
LINE
  8
0
 62
     0
 10
112.995
 20
18.3665
 30
0.0
 11
111.27
 21
18.3665
 31
0.0
  0
LINE
  8
0
 62
     0
 10
111.27
 20
18.3665
 30
0.0
 11
111.27
 21
15.1364
 31
0.0
  0
LINE
  8
0
 62
     0
 10
111.27
 20
15.1364
 30
0.0
 11
109.594
 21
15.1364
 31
0.0
  0
LINE
  8
0
 62
     0
 10
109.594
 20
15.1364
 30
0.0
 11
109.594
 21
15.886
 31
0.0
  0
LINE
  8
0
 62
     0
 10
109.594
 20
15.886
 30
0.0
 11
110.395
 21
15.886
 31
0.0
  0
LINE
  8
0
 62
     0
 10
110.395
 20
15.886
 30
0.0
 11
110.395
 21
18.8364
 31
0.0
  0
LINE
  8
0
 62
     0
 10
110.395
 20
18.8364
 30
0.0
 11
109.594
 21
18.8364
 31
0.0
  0
LINE
  8
0
 62
     0
 10
109.594
 20
18.8364
 30
0.0
 11
109.594
 21
19.8355
 31
0.0
  0
LINE
  8
0
 62
     0
 10
109.594
 20
19.8355
 30
0.0
 11
95.7446
 21
19.8355
 31
0.0
  0
LINE
  8
0
 62
     0
 10
67.1696
 20
19.8355
 30
0.0
 11
67.1696
 21
18.8364
 31
0.0
  0
LINE
  8
0
 62
     0
 10
67.1696
 20
18.8364
 30
0.0
 11
66.3691
 21
18.8364
 31
0.0
  0
LINE
  8
0
 62
     0
 10
66.3691
 20
18.8364
 30
0.0
 11
66.3691
 21
15.886
 31
0.0
  0
LINE
  8
0
 62
     0
 10
66.3691
 20
15.886
 30
0.0
 11
67.1696
 21
15.886
 31
0.0
  0
LINE
  8
0
 62
     0
 10
67.1696
 20
15.886
 30
0.0
 11
67.1696
 21
9.93567
 31
0.0
  0
LINE
  8
0
 62
     0
 10
67.1696
 20
9.93567
 30
0.0
 11
66.3691
 21
9.93567
 31
0.0
  0
LINE
  8
0
 62
     0
 10
66.3691
 20
9.93567
 30
0.0
 11
66.3691
 21
6.98666
 31
0.0
  0
LINE
  8
0
 62
     0
 10
66.3691
 20
6.98666
 30
0.0
 11
67.1696
 21
6.98666
 31
0.0
  0
LINE
  8
0
 62
     0
 10
67.1696
 20
6.98666
 30
0.0
 11
67.1696
 21
5.98622
 31
0.0
  0
LINE
  8
0
 62
     0
 10
67.1696
 20
5.98622
 30
0.0
 11
81.0189
 21
5.98622
 31
0.0
  0
LINE
  8
0
 62
     0
 10
81.0189
 20
5.98622
 30
0.0
 11
81.0189
 21
6.98666
 31
0.0
  0
LINE
  8
0
 62
     0
 10
81.0189
 20
6.98666
 30
0.0
 11
81.8197
 21
6.98666
 31
0.0
  0
LINE
  8
0
 62
     0
 10
81.8197
 20
6.98666
 30
0.0
 11
81.8197
 21
9.93567
 31
0.0
  0
LINE
  8
0
 62
     0
 10
81.8197
 20
9.93567
 30
0.0
 11
81.0189
 21
9.93567
 31
0.0
  0
LINE
  8
0
 62
     0
 10
81.0189
 20
9.93567
 30
0.0
 11
81.0189
 21
15.886
 31
0.0
  0
LINE
  8
0
 62
     0
 10
81.0189
 20
15.886
 30
0.0
 11
81.8197
 21
15.886
 31
0.0
  0
LINE
  8
0
 62
     0
 10
81.8197
 20
15.886
 30
0.0
 11
81.8197
 21
18.8364
 31
0.0
  0
LINE
  8
0
 62
     0
 10
81.8197
 20
18.8364
 30
0.0
 11
81.0189
 21
18.8364
 31
0.0
  0
LINE
  8
0
 62
     0
 10
81.0189
 20
18.8364
 30
0.0
 11
81.0189
 21
19.8355
 31
0.0
  0
LINE
  8
0
 62
     0
 10
81.0189
 20
19.8355
 30
0.0
 11
67.1696
 21
19.8355
 31
0.0
  0
LINE
  8
0
 62
     0
 10
18.977
 20
17.6568
 30
0.0
 11
18.8598
 21
17.643
 31
0.0
  0
LINE
  8
0
 62
     0
 10
18.8598
 20
17.643
 30
0.0
 11
18.7441
 21
17.6196
 31
0.0
  0
LINE
  8
0
 62
     0
 10
18.7441
 20
17.6196
 30
0.0
 11
18.6311
 21
17.5879
 31
0.0
  0
LINE
  8
0
 62
     0
 10
18.6311
 20
17.5879
 30
0.0
 11
18.5195
 21
17.5466
 31
0.0
  0
LINE
  8
0
 62
     0
 10
18.5195
 20
17.5466
 30
0.0
 11
18.4133
 21
17.4983
 31
0.0
  0
LINE
  8
0
 62
     0
 10
18.4133
 20
17.4983
 30
0.0
 11
18.31
 21
17.4405
 31
0.0
  0
LINE
  8
0
 62
     0
 10
18.31
 20
17.4405
 30
0.0
 11
18.2122
 21
17.3757
 31
0.0
  0
LINE
  8
0
 62
     0
 10
18.2122
 20
17.3757
 30
0.0
 11
18.1198
 21
17.3027
 31
0.0
  0
LINE
  8
0
 62
     0
 10
18.1198
 20
17.3027
 30
0.0
 11
18.033
 21
17.2227
 31
0.0
  0
LINE
  8
0
 62
     0
 10
18.033
 20
17.2227
 30
0.0
 11
17.9531
 21
17.1359
 31
0.0
  0
LINE
  8
0
 62
     0
 10
17.9531
 20
17.1359
 30
0.0
 11
17.88
 21
17.0436
 31
0.0
  0
LINE
  8
0
 62
     0
 10
17.88
 20
17.0436
 30
0.0
 11
17.8153
 21
16.9458
 31
0.0
  0
LINE
  8
0
 62
     0
 10
17.8153
 20
16.9458
 30
0.0
 11
17.7574
 21
16.8424
 31
0.0
  0
LINE
  8
0
 62
     0
 10
17.7574
 20
16.8424
 30
0.0
 11
17.7092
 21
16.7363
 31
0.0
  0
LINE
  8
0
 62
     0
 10
17.7092
 20
16.7363
 30
0.0
 11
17.6678
 21
16.6247
 31
0.0
  0
LINE
  8
0
 62
     0
 10
17.6678
 20
16.6247
 30
0.0
 11
17.6361
 21
16.5117
 31
0.0
  0
LINE
  8
0
 62
     0
 10
17.6361
 20
16.5117
 30
0.0
 11
17.6127
 21
16.3959
 31
0.0
  0
LINE
  8
0
 62
     0
 10
17.6127
 20
16.3959
 30
0.0
 11
17.5989
 21
16.2788
 31
0.0
  0
LINE
  8
0
 62
     0
 10
17.5989
 20
16.2788
 30
0.0
 11
17.5934
 21
16.1616
 31
0.0
  0
LINE
  8
0
 62
     0
 10
17.5934
 20
16.1616
 30
0.0
 11
17.5989
 21
16.0445
 31
0.0
  0
LINE
  8
0
 62
     0
 10
17.5989
 20
16.0445
 30
0.0
 11
17.6127
 21
15.9274
 31
0.0
  0
LINE
  8
0
 62
     0
 10
17.6127
 20
15.9274
 30
0.0
 11
17.6361
 21
15.8116
 31
0.0
  0
LINE
  8
0
 62
     0
 10
17.6361
 20
15.8116
 30
0.0
 11
17.6678
 21
15.6986
 31
0.0
  0
LINE
  8
0
 62
     0
 10
17.6678
 20
15.6986
 30
0.0
 11
17.7092
 21
15.587
 31
0.0
  0
LINE
  8
0
 62
     0
 10
17.7092
 20
15.587
 30
0.0
 11
17.7574
 21
15.4809
 31
0.0
  0
LINE
  8
0
 62
     0
 10
17.7574
 20
15.4809
 30
0.0
 11
17.8153
 21
15.3775
 31
0.0
  0
LINE
  8
0
 62
     0
 10
17.8153
 20
15.3775
 30
0.0
 11
17.88
 21
15.2797
 31
0.0
  0
LINE
  8
0
 62
     0
 10
17.88
 20
15.2797
 30
0.0
 11
17.9531
 21
15.1874
 31
0.0
  0
LINE
  8
0
 62
     0
 10
17.9531
 20
15.1874
 30
0.0
 11
18.033
 21
15.1005
 31
0.0
  0
LINE
  8
0
 62
     0
 10
18.033
 20
15.1005
 30
0.0
 11
18.1198
 21
15.0206
 31
0.0
  0
LINE
  8
0
 62
     0
 10
18.1198
 20
15.0206
 30
0.0
 11
18.2122
 21
14.9476
 31
0.0
  0
LINE
  8
0
 62
     0
 10
18.2122
 20
14.9476
 30
0.0
 11
18.31
 21
14.8828
 31
0.0
  0
LINE
  8
0
 62
     0
 10
18.31
 20
14.8828
 30
0.0
 11
18.4133
 21
14.8249
 31
0.0
  0
LINE
  8
0
 62
     0
 10
18.4133
 20
14.8249
 30
0.0
 11
18.5195
 21
14.7767
 31
0.0
  0
LINE
  8
0
 62
     0
 10
18.5195
 20
14.7767
 30
0.0
 11
18.6311
 21
14.7354
 31
0.0
  0
LINE
  8
0
 62
     0
 10
18.6311
 20
14.7354
 30
0.0
 11
18.7441
 21
14.7037
 31
0.0
  0
LINE
  8
0
 62
     0
 10
18.7441
 20
14.7037
 30
0.0
 11
18.8598
 21
14.6802
 31
0.0
  0
LINE
  8
0
 62
     0
 10
18.8598
 20
14.6802
 30
0.0
 11
18.977
 21
14.6665
 31
0.0
  0
LINE
  8
0
 62
     0
 10
18.977
 20
14.6665
 30
0.0
 11
19.0941
 21
14.661
 31
0.0
  0
LINE
  8
0
 62
     0
 10
19.0941
 20
14.661
 30
0.0
 11
19.2112
 21
14.6665
 31
0.0
  0
LINE
  8
0
 62
     0
 10
19.2112
 20
14.6665
 30
0.0
 11
19.3284
 21
14.6802
 31
0.0
  0
LINE
  8
0
 62
     0
 10
19.3284
 20
14.6802
 30
0.0
 11
19.4441
 21
14.7037
 31
0.0
  0
LINE
  8
0
 62
     0
 10
19.4441
 20
14.7037
 30
0.0
 11
19.5571
 21
14.7354
 31
0.0
  0
LINE
  8
0
 62
     0
 10
19.5571
 20
14.7354
 30
0.0
 11
19.6687
 21
14.7767
 31
0.0
  0
LINE
  8
0
 62
     0
 10
19.6687
 20
14.7767
 30
0.0
 11
19.7749
 21
14.8249
 31
0.0
  0
LINE
  8
0
 62
     0
 10
19.7749
 20
14.8249
 30
0.0
 11
19.8768
 21
14.8828
 31
0.0
  0
LINE
  8
0
 62
     0
 10
19.8768
 20
14.8828
 30
0.0
 11
19.976
 21
14.9476
 31
0.0
  0
LINE
  8
0
 62
     0
 10
19.976
 20
14.9476
 30
0.0
 11
20.0684
 21
15.0206
 31
0.0
  0
LINE
  8
0
 62
     0
 10
20.0684
 20
15.0206
 30
0.0
 11
20.1538
 21
15.1005
 31
0.0
  0
LINE
  8
0
 62
     0
 10
20.1538
 20
15.1005
 30
0.0
 11
20.2351
 21
15.1874
 31
0.0
  0
LINE
  8
0
 62
     0
 10
20.2351
 20
15.1874
 30
0.0
 11
20.3081
 21
15.2797
 31
0.0
  0
LINE
  8
0
 62
     0
 10
20.3081
 20
15.2797
 30
0.0
 11
20.3729
 21
15.3775
 31
0.0
  0
LINE
  8
0
 62
     0
 10
20.3729
 20
15.3775
 30
0.0
 11
20.4308
 21
15.4809
 31
0.0
  0
LINE
  8
0
 62
     0
 10
20.4308
 20
15.4809
 30
0.0
 11
20.479
 21
15.587
 31
0.0
  0
LINE
  8
0
 62
     0
 10
20.479
 20
15.587
 30
0.0
 11
20.5204
 21
15.6986
 31
0.0
  0
LINE
  8
0
 62
     0
 10
20.5204
 20
15.6986
 30
0.0
 11
20.5521
 21
15.8116
 31
0.0
  0
LINE
  8
0
 62
     0
 10
20.5521
 20
15.8116
 30
0.0
 11
20.5755
 21
15.9274
 31
0.0
  0
LINE
  8
0
 62
     0
 10
20.5755
 20
15.9274
 30
0.0
 11
20.5893
 21
16.0445
 31
0.0
  0
LINE
  8
0
 62
     0
 10
20.5893
 20
16.0445
 30
0.0
 11
20.5948
 21
16.1616
 31
0.0
  0
LINE
  8
0
 62
     0
 10
20.5948
 20
16.1616
 30
0.0
 11
20.5893
 21
16.2788
 31
0.0
  0
LINE
  8
0
 62
     0
 10
20.5893
 20
16.2788
 30
0.0
 11
20.5755
 21
16.3959
 31
0.0
  0
LINE
  8
0
 62
     0
 10
20.5755
 20
16.3959
 30
0.0
 11
20.5521
 21
16.5117
 31
0.0
  0
LINE
  8
0
 62
     0
 10
20.5521
 20
16.5117
 30
0.0
 11
20.5204
 21
16.6247
 31
0.0
  0
LINE
  8
0
 62
     0
 10
20.5204
 20
16.6247
 30
0.0
 11
20.479
 21
16.7363
 31
0.0
  0
LINE
  8
0
 62
     0
 10
20.479
 20
16.7363
 30
0.0
 11
20.4308
 21
16.8424
 31
0.0
  0
LINE
  8
0
 62
     0
 10
20.4308
 20
16.8424
 30
0.0
 11
20.3729
 21
16.9458
 31
0.0
  0
LINE
  8
0
 62
     0
 10
20.3729
 20
16.9458
 30
0.0
 11
20.3081
 21
17.0436
 31
0.0
  0
LINE
  8
0
 62
     0
 10
20.3081
 20
17.0436
 30
0.0
 11
20.2351
 21
17.1359
 31
0.0
  0
LINE
  8
0
 62
     0
 10
20.2351
 20
17.1359
 30
0.0
 11
20.1538
 21
17.2227
 31
0.0
  0
LINE
  8
0
 62
     0
 10
20.1538
 20
17.2227
 30
0.0
 11
20.0684
 21
17.3027
 31
0.0
  0
LINE
  8
0
 62
     0
 10
20.0684
 20
17.3027
 30
0.0
 11
19.976
 21
17.3757
 31
0.0
  0
LINE
  8
0
 62
     0
 10
19.976
 20
17.3757
 30
0.0
 11
19.8768
 21
17.4405
 31
0.0
  0
LINE
  8
0
 62
     0
 10
19.8768
 20
17.4405
 30
0.0
 11
19.7749
 21
17.4983
 31
0.0
  0
LINE
  8
0
 62
     0
 10
19.7749
 20
17.4983
 30
0.0
 11
19.6687
 21
17.5466
 31
0.0
  0
LINE
  8
0
 62
     0
 10
19.6687
 20
17.5466
 30
0.0
 11
19.5571
 21
17.5879
 31
0.0
  0
LINE
  8
0
 62
     0
 10
19.5571
 20
17.5879
 30
0.0
 11
19.4441
 21
17.6196
 31
0.0
  0
LINE
  8
0
 62
     0
 10
19.4441
 20
17.6196
 30
0.0
 11
19.3284
 21
17.643
 31
0.0
  0
LINE
  8
0
 62
     0
 10
19.3284
 20
17.643
 30
0.0
 11
19.2112
 21
17.6568
 31
0.0
  0
LINE
  8
0
 62
     0
 10
19.2112
 20
17.6568
 30
0.0
 11
19.0941
 21
17.6609
 31
0.0
  0
LINE
  8
0
 62
     0
 10
19.0941
 20
17.6609
 30
0.0
 11
18.977
 21
17.6568
 31
0.0
  0
LINE
  8
0
 62
     0
 10
128.977
 20
17.6568
 30
0.0
 11
128.86
 21
17.643
 31
0.0
  0
LINE
  8
0
 62
     0
 10
128.86
 20
17.643
 30
0.0
 11
128.744
 21
17.6196
 31
0.0
  0
LINE
  8
0
 62
     0
 10
128.744
 20
17.6196
 30
0.0
 11
128.632
 21
17.5879
 31
0.0
  0
LINE
  8
0
 62
     0
 10
128.632
 20
17.5879
 30
0.0
 11
128.52
 21
17.5466
 31
0.0
  0
LINE
  8
0
 62
     0
 10
128.52
 20
17.5466
 30
0.0
 11
128.414
 21
17.4983
 31
0.0
  0
LINE
  8
0
 62
     0
 10
128.414
 20
17.4983
 30
0.0
 11
128.312
 21
17.4405
 31
0.0
  0
LINE
  8
0
 62
     0
 10
128.312
 20
17.4405
 30
0.0
 11
128.214
 21
17.3757
 31
0.0
  0
LINE
  8
0
 62
     0
 10
128.214
 20
17.3757
 30
0.0
 11
128.12
 21
17.3027
 31
0.0
  0
LINE
  8
0
 62
     0
 10
128.12
 20
17.3027
 30
0.0
 11
128.035
 21
17.2227
 31
0.0
  0
LINE
  8
0
 62
     0
 10
128.035
 20
17.2227
 30
0.0
 11
127.955
 21
17.1359
 31
0.0
  0
LINE
  8
0
 62
     0
 10
127.955
 20
17.1359
 30
0.0
 11
127.882
 21
17.0436
 31
0.0
  0
LINE
  8
0
 62
     0
 10
127.882
 20
17.0436
 30
0.0
 11
127.817
 21
16.9458
 31
0.0
  0
LINE
  8
0
 62
     0
 10
127.817
 20
16.9458
 30
0.0
 11
127.758
 21
16.8424
 31
0.0
  0
LINE
  8
0
 62
     0
 10
127.758
 20
16.8424
 30
0.0
 11
127.71
 21
16.7363
 31
0.0
  0
LINE
  8
0
 62
     0
 10
127.71
 20
16.7363
 30
0.0
 11
127.669
 21
16.6247
 31
0.0
  0
LINE
  8
0
 62
     0
 10
127.669
 20
16.6247
 30
0.0
 11
127.637
 21
16.5117
 31
0.0
  0
LINE
  8
0
 62
     0
 10
127.637
 20
16.5117
 30
0.0
 11
127.613
 21
16.3959
 31
0.0
  0
LINE
  8
0
 62
     0
 10
127.613
 20
16.3959
 30
0.0
 11
127.599
 21
16.2788
 31
0.0
  0
LINE
  8
0
 62
     0
 10
127.599
 20
16.2788
 30
0.0
 11
127.595
 21
16.1616
 31
0.0
  0
LINE
  8
0
 62
     0
 10
127.595
 20
16.1616
 30
0.0
 11
127.599
 21
16.0445
 31
0.0
  0
LINE
  8
0
 62
     0
 10
127.599
 20
16.0445
 30
0.0
 11
127.613
 21
15.9274
 31
0.0
  0
LINE
  8
0
 62
     0
 10
127.613
 20
15.9274
 30
0.0
 11
127.637
 21
15.8116
 31
0.0
  0
LINE
  8
0
 62
     0
 10
127.637
 20
15.8116
 30
0.0
 11
127.669
 21
15.6986
 31
0.0
  0
LINE
  8
0
 62
     0
 10
127.669
 20
15.6986
 30
0.0
 11
127.71
 21
15.587
 31
0.0
  0
LINE
  8
0
 62
     0
 10
127.71
 20
15.587
 30
0.0
 11
127.758
 21
15.4809
 31
0.0
  0
LINE
  8
0
 62
     0
 10
127.758
 20
15.4809
 30
0.0
 11
127.817
 21
15.3775
 31
0.0
  0
LINE
  8
0
 62
     0
 10
127.817
 20
15.3775
 30
0.0
 11
127.882
 21
15.2797
 31
0.0
  0
LINE
  8
0
 62
     0
 10
127.882
 20
15.2797
 30
0.0
 11
127.955
 21
15.1874
 31
0.0
  0
LINE
  8
0
 62
     0
 10
127.955
 20
15.1874
 30
0.0
 11
128.035
 21
15.1005
 31
0.0
  0
LINE
  8
0
 62
     0
 10
128.035
 20
15.1005
 30
0.0
 11
128.12
 21
15.0206
 31
0.0
  0
LINE
  8
0
 62
     0
 10
128.12
 20
15.0206
 30
0.0
 11
128.214
 21
14.9476
 31
0.0
  0
LINE
  8
0
 62
     0
 10
128.214
 20
14.9476
 30
0.0
 11
128.312
 21
14.8828
 31
0.0
  0
LINE
  8
0
 62
     0
 10
128.312
 20
14.8828
 30
0.0
 11
128.414
 21
14.8249
 31
0.0
  0
LINE
  8
0
 62
     0
 10
128.414
 20
14.8249
 30
0.0
 11
128.52
 21
14.7767
 31
0.0
  0
LINE
  8
0
 62
     0
 10
128.52
 20
14.7767
 30
0.0
 11
128.632
 21
14.7354
 31
0.0
  0
LINE
  8
0
 62
     0
 10
128.632
 20
14.7354
 30
0.0
 11
128.744
 21
14.7037
 31
0.0
  0
LINE
  8
0
 62
     0
 10
128.744
 20
14.7037
 30
0.0
 11
128.86
 21
14.6802
 31
0.0
  0
LINE
  8
0
 62
     0
 10
128.86
 20
14.6802
 30
0.0
 11
128.977
 21
14.6665
 31
0.0
  0
LINE
  8
0
 62
     0
 10
128.977
 20
14.6665
 30
0.0
 11
129.096
 21
14.661
 31
0.0
  0
LINE
  8
0
 62
     0
 10
129.096
 20
14.661
 30
0.0
 11
129.213
 21
14.6665
 31
0.0
  0
LINE
  8
0
 62
     0
 10
129.213
 20
14.6665
 30
0.0
 11
129.329
 21
14.6802
 31
0.0
  0
LINE
  8
0
 62
     0
 10
129.329
 20
14.6802
 30
0.0
 11
129.446
 21
14.7037
 31
0.0
  0
LINE
  8
0
 62
     0
 10
129.446
 20
14.7037
 30
0.0
 11
129.559
 21
14.7354
 31
0.0
  0
LINE
  8
0
 62
     0
 10
129.559
 20
14.7354
 30
0.0
 11
129.669
 21
14.7767
 31
0.0
  0
LINE
  8
0
 62
     0
 10
129.669
 20
14.7767
 30
0.0
 11
129.775
 21
14.8249
 31
0.0
  0
LINE
  8
0
 62
     0
 10
129.775
 20
14.8249
 30
0.0
 11
129.879
 21
14.8828
 31
0.0
  0
LINE
  8
0
 62
     0
 10
129.879
 20
14.8828
 30
0.0
 11
129.977
 21
14.9476
 31
0.0
  0
LINE
  8
0
 62
     0
 10
129.977
 20
14.9476
 30
0.0
 11
130.069
 21
15.0206
 31
0.0
  0
LINE
  8
0
 62
     0
 10
130.069
 20
15.0206
 30
0.0
 11
130.156
 21
15.1005
 31
0.0
  0
LINE
  8
0
 62
     0
 10
130.156
 20
15.1005
 30
0.0
 11
130.236
 21
15.1874
 31
0.0
  0
LINE
  8
0
 62
     0
 10
130.236
 20
15.1874
 30
0.0
 11
130.309
 21
15.2797
 31
0.0
  0
LINE
  8
0
 62
     0
 10
130.309
 20
15.2797
 30
0.0
 11
130.374
 21
15.3775
 31
0.0
  0
LINE
  8
0
 62
     0
 10
130.374
 20
15.3775
 30
0.0
 11
130.431
 21
15.4809
 31
0.0
  0
LINE
  8
0
 62
     0
 10
130.431
 20
15.4809
 30
0.0
 11
130.481
 21
15.587
 31
0.0
  0
LINE
  8
0
 62
     0
 10
130.481
 20
15.587
 30
0.0
 11
130.521
 21
15.6986
 31
0.0
  0
LINE
  8
0
 62
     0
 10
130.521
 20
15.6986
 30
0.0
 11
130.554
 21
15.8116
 31
0.0
  0
LINE
  8
0
 62
     0
 10
130.554
 20
15.8116
 30
0.0
 11
130.576
 21
15.9274
 31
0.0
  0
LINE
  8
0
 62
     0
 10
130.576
 20
15.9274
 30
0.0
 11
130.591
 21
16.0445
 31
0.0
  0
LINE
  8
0
 62
     0
 10
130.591
 20
16.0445
 30
0.0
 11
130.595
 21
16.1616
 31
0.0
  0
LINE
  8
0
 62
     0
 10
130.595
 20
16.1616
 30
0.0
 11
130.591
 21
16.2788
 31
0.0
  0
LINE
  8
0
 62
     0
 10
130.591
 20
16.2788
 30
0.0
 11
130.576
 21
16.3959
 31
0.0
  0
LINE
  8
0
 62
     0
 10
130.576
 20
16.3959
 30
0.0
 11
130.554
 21
16.5117
 31
0.0
  0
LINE
  8
0
 62
     0
 10
130.554
 20
16.5117
 30
0.0
 11
130.521
 21
16.6247
 31
0.0
  0
LINE
  8
0
 62
     0
 10
130.521
 20
16.6247
 30
0.0
 11
130.481
 21
16.7363
 31
0.0
  0
LINE
  8
0
 62
     0
 10
130.481
 20
16.7363
 30
0.0
 11
130.431
 21
16.8424
 31
0.0
  0
LINE
  8
0
 62
     0
 10
130.431
 20
16.8424
 30
0.0
 11
130.374
 21
16.9458
 31
0.0
  0
LINE
  8
0
 62
     0
 10
130.374
 20
16.9458
 30
0.0
 11
130.309
 21
17.0436
 31
0.0
  0
LINE
  8
0
 62
     0
 10
130.309
 20
17.0436
 30
0.0
 11
130.236
 21
17.1359
 31
0.0
  0
LINE
  8
0
 62
     0
 10
130.236
 20
17.1359
 30
0.0
 11
130.156
 21
17.2227
 31
0.0
  0
LINE
  8
0
 62
     0
 10
130.156
 20
17.2227
 30
0.0
 11
130.069
 21
17.3027
 31
0.0
  0
LINE
  8
0
 62
     0
 10
130.069
 20
17.3027
 30
0.0
 11
129.977
 21
17.3757
 31
0.0
  0
LINE
  8
0
 62
     0
 10
129.977
 20
17.3757
 30
0.0
 11
129.879
 21
17.4405
 31
0.0
  0
LINE
  8
0
 62
     0
 10
129.879
 20
17.4405
 30
0.0
 11
129.775
 21
17.4983
 31
0.0
  0
LINE
  8
0
 62
     0
 10
129.775
 20
17.4983
 30
0.0
 11
129.669
 21
17.5466
 31
0.0
  0
LINE
  8
0
 62
     0
 10
129.669
 20
17.5466
 30
0.0
 11
129.559
 21
17.5879
 31
0.0
  0
LINE
  8
0
 62
     0
 10
129.559
 20
17.5879
 30
0.0
 11
129.446
 21
17.6196
 31
0.0
  0
LINE
  8
0
 62
     0
 10
129.446
 20
17.6196
 30
0.0
 11
129.329
 21
17.643
 31
0.0
  0
LINE
  8
0
 62
     0
 10
129.329
 20
17.643
 30
0.0
 11
129.213
 21
17.6568
 31
0.0
  0
LINE
  8
0
 62
     0
 10
129.213
 20
17.6568
 30
0.0
 11
129.096
 21
17.6609
 31
0.0
  0
LINE
  8
0
 62
     0
 10
129.096
 20
17.6609
 30
0.0
 11
128.977
 21
17.6568
 31
0.0
  0
LINE
  8
0
 62
     0
 10
26.6871
 20
38.8856
 30
0.0
 11
26.6871
 21
37.8866
 31
0.0
  0
LINE
  8
0
 62
     0
 10
26.6871
 20
37.8866
 30
0.0
 11
25.8878
 21
37.8866
 31
0.0
  0
LINE
  8
0
 62
     0
 10
25.8878
 20
37.8866
 30
0.0
 11
25.8878
 21
34.936
 31
0.0
  0
LINE
  8
0
 62
     0
 10
25.8878
 20
34.936
 30
0.0
 11
26.6871
 21
34.936
 31
0.0
  0
LINE
  8
0
 62
     0
 10
26.6871
 20
34.936
 30
0.0
 11
26.6871
 21
28.9857
 31
0.0
  0
LINE
  8
0
 62
     0
 10
26.6871
 20
28.9857
 30
0.0
 11
25.8878
 21
28.9857
 31
0.0
  0
LINE
  8
0
 62
     0
 10
25.8878
 20
28.9857
 30
0.0
 11
25.8878
 21
26.0367
 31
0.0
  0
LINE
  8
0
 62
     0
 10
25.8878
 20
26.0367
 30
0.0
 11
26.6871
 21
26.0367
 31
0.0
  0
LINE
  8
0
 62
     0
 10
26.6871
 20
26.0367
 30
0.0
 11
26.6871
 21
25.0362
 31
0.0
  0
LINE
  8
0
 62
     0
 10
26.6871
 20
25.0362
 30
0.0
 11
40.5377
 21
25.0362
 31
0.0
  0
LINE
  8
0
 62
     0
 10
40.5377
 20
25.0362
 30
0.0
 11
40.5377
 21
26.0367
 31
0.0
  0
LINE
  8
0
 62
     0
 10
40.5377
 20
26.0367
 30
0.0
 11
41.3371
 21
26.0367
 31
0.0
  0
LINE
  8
0
 62
     0
 10
41.3371
 20
26.0367
 30
0.0
 11
41.3371
 21
28.9857
 31
0.0
  0
LINE
  8
0
 62
     0
 10
41.3371
 20
28.9857
 30
0.0
 11
40.5377
 21
28.9857
 31
0.0
  0
LINE
  8
0
 62
     0
 10
40.5377
 20
28.9857
 30
0.0
 11
40.5377
 21
34.936
 31
0.0
  0
LINE
  8
0
 62
     0
 10
40.5377
 20
34.936
 30
0.0
 11
41.3371
 21
34.936
 31
0.0
  0
LINE
  8
0
 62
     0
 10
41.3371
 20
34.936
 30
0.0
 11
41.3371
 21
37.8866
 31
0.0
  0
LINE
  8
0
 62
     0
 10
41.3371
 20
37.8866
 30
0.0
 11
40.5377
 21
37.8866
 31
0.0
  0
LINE
  8
0
 62
     0
 10
40.5377
 20
37.8866
 30
0.0
 11
40.5377
 21
38.8856
 31
0.0
  0
LINE
  8
0
 62
     0
 10
40.5377
 20
38.8856
 30
0.0
 11
26.6871
 21
38.8856
 31
0.0
  0
LINE
  8
0
 62
     0
 10
48.1196
 20
38.8856
 30
0.0
 11
48.1196
 21
37.8866
 31
0.0
  0
LINE
  8
0
 62
     0
 10
48.1196
 20
37.8866
 30
0.0
 11
47.3191
 21
37.8866
 31
0.0
  0
LINE
  8
0
 62
     0
 10
47.3191
 20
37.8866
 30
0.0
 11
47.3191
 21
34.936
 31
0.0
  0
LINE
  8
0
 62
     0
 10
47.3191
 20
34.936
 30
0.0
 11
48.1196
 21
34.936
 31
0.0
  0
LINE
  8
0
 62
     0
 10
48.1196
 20
34.936
 30
0.0
 11
48.1196
 21
28.9857
 31
0.0
  0
LINE
  8
0
 62
     0
 10
48.1196
 20
28.9857
 30
0.0
 11
47.3191
 21
28.9857
 31
0.0
  0
LINE
  8
0
 62
     0
 10
47.3191
 20
28.9857
 30
0.0
 11
47.3191
 21
26.0367
 31
0.0
  0
LINE
  8
0
 62
     0
 10
47.3191
 20
26.0367
 30
0.0
 11
48.1196
 21
26.0367
 31
0.0
  0
LINE
  8
0
 62
     0
 10
48.1196
 20
26.0367
 30
0.0
 11
48.1196
 21
25.0362
 31
0.0
  0
LINE
  8
0
 62
     0
 10
48.1196
 20
25.0362
 30
0.0
 11
61.9689
 21
25.0362
 31
0.0
  0
LINE
  8
0
 62
     0
 10
61.9689
 20
25.0362
 30
0.0
 11
61.9689
 21
26.0367
 31
0.0
  0
LINE
  8
0
 62
     0
 10
61.9689
 20
26.0367
 30
0.0
 11
62.7697
 21
26.0367
 31
0.0
  0
LINE
  8
0
 62
     0
 10
62.7697
 20
26.0367
 30
0.0
 11
62.7697
 21
28.9857
 31
0.0
  0
LINE
  8
0
 62
     0
 10
62.7697
 20
28.9857
 30
0.0
 11
61.9689
 21
28.9857
 31
0.0
  0
LINE
  8
0
 62
     0
 10
61.9689
 20
28.9857
 30
0.0
 11
61.9689
 21
34.936
 31
0.0
  0
LINE
  8
0
 62
     0
 10
61.9689
 20
34.936
 30
0.0
 11
62.7697
 21
34.936
 31
0.0
  0
LINE
  8
0
 62
     0
 10
62.7697
 20
34.936
 30
0.0
 11
62.7697
 21
37.8866
 31
0.0
  0
LINE
  8
0
 62
     0
 10
62.7697
 20
37.8866
 30
0.0
 11
61.9689
 21
37.8866
 31
0.0
  0
LINE
  8
0
 62
     0
 10
61.9689
 20
37.8866
 30
0.0
 11
61.9689
 21
38.8856
 31
0.0
  0
LINE
  8
0
 62
     0
 10
61.9689
 20
38.8856
 30
0.0
 11
48.1196
 21
38.8856
 31
0.0
  0
LINE
  8
0
 62
     0
 10
67.1696
 20
38.8856
 30
0.0
 11
67.1696
 21
37.8866
 31
0.0
  0
LINE
  8
0
 62
     0
 10
67.1696
 20
37.8866
 30
0.0
 11
66.3691
 21
37.8866
 31
0.0
  0
LINE
  8
0
 62
     0
 10
66.3691
 20
37.8866
 30
0.0
 11
66.3691
 21
34.936
 31
0.0
  0
LINE
  8
0
 62
     0
 10
66.3691
 20
34.936
 30
0.0
 11
67.1696
 21
34.936
 31
0.0
  0
LINE
  8
0
 62
     0
 10
67.1696
 20
34.936
 30
0.0
 11
67.1696
 21
28.9857
 31
0.0
  0
LINE
  8
0
 62
     0
 10
67.1696
 20
28.9857
 30
0.0
 11
66.3691
 21
28.9857
 31
0.0
  0
LINE
  8
0
 62
     0
 10
66.3691
 20
28.9857
 30
0.0
 11
66.3691
 21
26.0367
 31
0.0
  0
LINE
  8
0
 62
     0
 10
66.3691
 20
26.0367
 30
0.0
 11
67.1696
 21
26.0367
 31
0.0
  0
LINE
  8
0
 62
     0
 10
67.1696
 20
26.0367
 30
0.0
 11
67.1696
 21
25.0362
 31
0.0
  0
LINE
  8
0
 62
     0
 10
67.1696
 20
25.0362
 30
0.0
 11
81.0189
 21
25.0362
 31
0.0
  0
LINE
  8
0
 62
     0
 10
81.0189
 20
25.0362
 30
0.0
 11
81.0189
 21
26.0367
 31
0.0
  0
LINE
  8
0
 62
     0
 10
81.0189
 20
26.0367
 30
0.0
 11
81.8197
 21
26.0367
 31
0.0
  0
LINE
  8
0
 62
     0
 10
81.8197
 20
26.0367
 30
0.0
 11
81.8197
 21
28.9857
 31
0.0
  0
LINE
  8
0
 62
     0
 10
81.8197
 20
28.9857
 30
0.0
 11
81.0189
 21
28.9857
 31
0.0
  0
LINE
  8
0
 62
     0
 10
81.0189
 20
28.9857
 30
0.0
 11
81.0189
 21
34.936
 31
0.0
  0
LINE
  8
0
 62
     0
 10
81.0189
 20
34.936
 30
0.0
 11
81.8197
 21
34.936
 31
0.0
  0
LINE
  8
0
 62
     0
 10
81.8197
 20
34.936
 30
0.0
 11
81.8197
 21
37.8866
 31
0.0
  0
LINE
  8
0
 62
     0
 10
81.8197
 20
37.8866
 30
0.0
 11
81.0189
 21
37.8866
 31
0.0
  0
LINE
  8
0
 62
     0
 10
81.0189
 20
37.8866
 30
0.0
 11
81.0189
 21
38.8856
 31
0.0
  0
LINE
  8
0
 62
     0
 10
81.0189
 20
38.8856
 30
0.0
 11
67.1696
 21
38.8856
 31
0.0
  0
LINE
  8
0
 62
     0
 10
86.2196
 20
38.8856
 30
0.0
 11
86.2196
 21
37.8866
 31
0.0
  0
LINE
  8
0
 62
     0
 10
86.2196
 20
37.8866
 30
0.0
 11
85.4191
 21
37.8866
 31
0.0
  0
LINE
  8
0
 62
     0
 10
85.4191
 20
37.8866
 30
0.0
 11
85.4191
 21
34.936
 31
0.0
  0
LINE
  8
0
 62
     0
 10
85.4191
 20
34.936
 30
0.0
 11
86.2196
 21
34.936
 31
0.0
  0
LINE
  8
0
 62
     0
 10
86.2196
 20
34.936
 30
0.0
 11
86.2196
 21
28.9857
 31
0.0
  0
LINE
  8
0
 62
     0
 10
86.2196
 20
28.9857
 30
0.0
 11
85.4191
 21
28.9857
 31
0.0
  0
LINE
  8
0
 62
     0
 10
85.4191
 20
28.9857
 30
0.0
 11
85.4191
 21
26.0367
 31
0.0
  0
LINE
  8
0
 62
     0
 10
85.4191
 20
26.0367
 30
0.0
 11
86.2196
 21
26.0367
 31
0.0
  0
LINE
  8
0
 62
     0
 10
86.2196
 20
26.0367
 30
0.0
 11
86.2196
 21
25.0362
 31
0.0
  0
LINE
  8
0
 62
     0
 10
86.2196
 20
25.0362
 30
0.0
 11
100.069
 21
25.0362
 31
0.0
  0
LINE
  8
0
 62
     0
 10
100.069
 20
25.0362
 30
0.0
 11
100.069
 21
26.0367
 31
0.0
  0
LINE
  8
0
 62
     0
 10
100.069
 20
26.0367
 30
0.0
 11
100.868
 21
26.0367
 31
0.0
  0
LINE
  8
0
 62
     0
 10
100.868
 20
26.0367
 30
0.0
 11
100.868
 21
28.9857
 31
0.0
  0
LINE
  8
0
 62
     0
 10
100.868
 20
28.9857
 30
0.0
 11
100.069
 21
28.9857
 31
0.0
  0
LINE
  8
0
 62
     0
 10
100.069
 20
28.9857
 30
0.0
 11
100.069
 21
34.936
 31
0.0
  0
LINE
  8
0
 62
     0
 10
100.069
 20
34.936
 30
0.0
 11
100.868
 21
34.936
 31
0.0
  0
LINE
  8
0
 62
     0
 10
100.868
 20
34.936
 30
0.0
 11
100.868
 21
37.8866
 31
0.0
  0
LINE
  8
0
 62
     0
 10
100.868
 20
37.8866
 30
0.0
 11
100.069
 21
37.8866
 31
0.0
  0
LINE
  8
0
 62
     0
 10
100.069
 20
37.8866
 30
0.0
 11
100.069
 21
38.8856
 31
0.0
  0
LINE
  8
0
 62
     0
 10
100.069
 20
38.8856
 30
0.0
 11
86.2196
 21
38.8856
 31
0.0
  0
LINE
  8
0
 62
     0
 10
107.651
 20
38.8856
 30
0.0
 11
107.651
 21
37.8866
 31
0.0
  0
LINE
  8
0
 62
     0
 10
107.651
 20
37.8866
 30
0.0
 11
106.85
 21
37.8866
 31
0.0
  0
LINE
  8
0
 62
     0
 10
106.85
 20
37.8866
 30
0.0
 11
106.85
 21
34.936
 31
0.0
  0
LINE
  8
0
 62
     0
 10
106.85
 20
34.936
 30
0.0
 11
107.651
 21
34.936
 31
0.0
  0
LINE
  8
0
 62
     0
 10
107.651
 20
34.936
 30
0.0
 11
107.651
 21
28.9857
 31
0.0
  0
LINE
  8
0
 62
     0
 10
107.651
 20
28.9857
 30
0.0
 11
106.85
 21
28.9857
 31
0.0
  0
LINE
  8
0
 62
     0
 10
106.85
 20
28.9857
 30
0.0
 11
106.85
 21
26.0367
 31
0.0
  0
LINE
  8
0
 62
     0
 10
106.85
 20
26.0367
 30
0.0
 11
107.651
 21
26.0367
 31
0.0
  0
LINE
  8
0
 62
     0
 10
107.651
 20
26.0367
 30
0.0
 11
107.651
 21
25.0362
 31
0.0
  0
LINE
  8
0
 62
     0
 10
107.651
 20
25.0362
 30
0.0
 11
121.5
 21
25.0362
 31
0.0
  0
LINE
  8
0
 62
     0
 10
121.5
 20
25.0362
 30
0.0
 11
121.5
 21
26.0367
 31
0.0
  0
LINE
  8
0
 62
     0
 10
121.5
 20
26.0367
 30
0.0
 11
122.301
 21
26.0367
 31
0.0
  0
LINE
  8
0
 62
     0
 10
122.301
 20
26.0367
 30
0.0
 11
122.301
 21
28.9857
 31
0.0
  0
LINE
  8
0
 62
     0
 10
122.301
 20
28.9857
 30
0.0
 11
121.5
 21
28.9857
 31
0.0
  0
LINE
  8
0
 62
     0
 10
121.5
 20
28.9857
 30
0.0
 11
121.5
 21
34.936
 31
0.0
  0
LINE
  8
0
 62
     0
 10
121.5
 20
34.936
 30
0.0
 11
122.301
 21
34.936
 31
0.0
  0
LINE
  8
0
 62
     0
 10
122.301
 20
34.936
 30
0.0
 11
122.301
 21
37.8866
 31
0.0
  0
LINE
  8
0
 62
     0
 10
122.301
 20
37.8866
 30
0.0
 11
121.5
 21
37.8866
 31
0.0
  0
LINE
  8
0
 62
     0
 10
121.5
 20
37.8866
 30
0.0
 11
121.5
 21
38.8856
 31
0.0
  0
LINE
  8
0
 62
     0
 10
121.5
 20
38.8856
 30
0.0
 11
107.651
 21
38.8856
 31
0.0
  0
LINE
  8
0
 62
     0
 10
10.0197
 20
57.9356
 30
0.0
 11
10.0197
 21
56.9366
 31
0.0
  0
LINE
  8
0
 62
     0
 10
10.0197
 20
56.9366
 30
0.0
 11
9.21907
 21
56.9366
 31
0.0
  0
LINE
  8
0
 62
     0
 10
9.21907
 20
56.9366
 30
0.0
 11
9.21907
 21
53.9859
 31
0.0
  0
LINE
  8
0
 62
     0
 10
9.21907
 20
53.9859
 30
0.0
 11
10.0197
 21
53.9859
 31
0.0
  0
LINE
  8
0
 62
     0
 10
10.0197
 20
53.9859
 30
0.0
 11
10.0197
 21
48.0356
 31
0.0
  0
LINE
  8
0
 62
     0
 10
10.0197
 20
48.0356
 30
0.0
 11
9.21907
 21
48.0356
 31
0.0
  0
LINE
  8
0
 62
     0
 10
9.21907
 20
48.0356
 30
0.0
 11
9.21907
 21
45.0868
 31
0.0
  0
LINE
  8
0
 62
     0
 10
9.21907
 20
45.0868
 30
0.0
 11
10.0197
 21
45.0868
 31
0.0
  0
LINE
  8
0
 62
     0
 10
10.0197
 20
45.0868
 30
0.0
 11
10.0197
 21
44.0863
 31
0.0
  0
LINE
  8
0
 62
     0
 10
10.0197
 20
44.0863
 30
0.0
 11
23.869
 21
44.0863
 31
0.0
  0
LINE
  8
0
 62
     0
 10
23.869
 20
44.0863
 30
0.0
 11
23.869
 21
45.0868
 31
0.0
  0
LINE
  8
0
 62
     0
 10
23.869
 20
45.0868
 30
0.0
 11
24.6696
 21
45.0868
 31
0.0
  0
LINE
  8
0
 62
     0
 10
24.6696
 20
45.0868
 30
0.0
 11
24.6696
 21
48.0356
 31
0.0
  0
LINE
  8
0
 62
     0
 10
24.6696
 20
48.0356
 30
0.0
 11
23.869
 21
48.0356
 31
0.0
  0
LINE
  8
0
 62
     0
 10
23.869
 20
48.0356
 30
0.0
 11
23.869
 21
53.9859
 31
0.0
  0
LINE
  8
0
 62
     0
 10
23.869
 20
53.9859
 30
0.0
 11
24.6696
 21
53.9859
 31
0.0
  0
LINE
  8
0
 62
     0
 10
24.6696
 20
53.9859
 30
0.0
 11
24.6696
 21
56.9366
 31
0.0
  0
LINE
  8
0
 62
     0
 10
24.6696
 20
56.9366
 30
0.0
 11
23.869
 21
56.9366
 31
0.0
  0
LINE
  8
0
 62
     0
 10
23.869
 20
56.9366
 30
0.0
 11
23.869
 21
57.9356
 31
0.0
  0
LINE
  8
0
 62
     0
 10
23.869
 20
57.9356
 30
0.0
 11
10.0197
 21
57.9356
 31
0.0
  0
LINE
  8
0
 62
     0
 10
29.0697
 20
57.9356
 30
0.0
 11
29.0697
 21
56.9366
 31
0.0
  0
LINE
  8
0
 62
     0
 10
29.0697
 20
56.9366
 30
0.0
 11
28.2691
 21
56.9366
 31
0.0
  0
LINE
  8
0
 62
     0
 10
28.2691
 20
56.9366
 30
0.0
 11
28.2691
 21
53.9859
 31
0.0
  0
LINE
  8
0
 62
     0
 10
28.2691
 20
53.9859
 30
0.0
 11
29.0697
 21
53.9859
 31
0.0
  0
LINE
  8
0
 62
     0
 10
29.0697
 20
53.9859
 30
0.0
 11
29.0697
 21
48.0356
 31
0.0
  0
LINE
  8
0
 62
     0
 10
29.0697
 20
48.0356
 30
0.0
 11
28.2691
 21
48.0356
 31
0.0
  0
LINE
  8
0
 62
     0
 10
28.2691
 20
48.0356
 30
0.0
 11
28.2691
 21
45.0868
 31
0.0
  0
LINE
  8
0
 62
     0
 10
28.2691
 20
45.0868
 30
0.0
 11
29.0697
 21
45.0868
 31
0.0
  0
LINE
  8
0
 62
     0
 10
29.0697
 20
45.0868
 30
0.0
 11
29.0697
 21
44.0863
 31
0.0
  0
LINE
  8
0
 62
     0
 10
29.0697
 20
44.0863
 30
0.0
 11
42.9189
 21
44.0863
 31
0.0
  0
LINE
  8
0
 62
     0
 10
42.9189
 20
44.0863
 30
0.0
 11
42.9189
 21
45.0868
 31
0.0
  0
LINE
  8
0
 62
     0
 10
42.9189
 20
45.0868
 30
0.0
 11
43.7198
 21
45.0868
 31
0.0
  0
LINE
  8
0
 62
     0
 10
43.7198
 20
45.0868
 30
0.0
 11
43.7198
 21
48.0356
 31
0.0
  0
LINE
  8
0
 62
     0
 10
43.7198
 20
48.0356
 30
0.0
 11
42.9189
 21
48.0356
 31
0.0
  0
LINE
  8
0
 62
     0
 10
42.9189
 20
48.0356
 30
0.0
 11
42.9189
 21
53.9859
 31
0.0
  0
LINE
  8
0
 62
     0
 10
42.9189
 20
53.9859
 30
0.0
 11
43.7198
 21
53.9859
 31
0.0
  0
LINE
  8
0
 62
     0
 10
43.7198
 20
53.9859
 30
0.0
 11
43.7198
 21
56.9366
 31
0.0
  0
LINE
  8
0
 62
     0
 10
43.7198
 20
56.9366
 30
0.0
 11
42.9189
 21
56.9366
 31
0.0
  0
LINE
  8
0
 62
     0
 10
42.9189
 20
56.9366
 30
0.0
 11
42.9189
 21
57.9356
 31
0.0
  0
LINE
  8
0
 62
     0
 10
42.9189
 20
57.9356
 30
0.0
 11
29.0697
 21
57.9356
 31
0.0
  0
LINE
  8
0
 62
     0
 10
48.1196
 20
57.9356
 30
0.0
 11
48.1196
 21
56.9366
 31
0.0
  0
LINE
  8
0
 62
     0
 10
48.1196
 20
56.9366
 30
0.0
 11
47.3191
 21
56.9366
 31
0.0
  0
LINE
  8
0
 62
     0
 10
47.3191
 20
56.9366
 30
0.0
 11
47.3191
 21
53.9859
 31
0.0
  0
LINE
  8
0
 62
     0
 10
47.3191
 20
53.9859
 30
0.0
 11
48.1196
 21
53.9859
 31
0.0
  0
LINE
  8
0
 62
     0
 10
48.1196
 20
53.9859
 30
0.0
 11
48.1196
 21
48.0356
 31
0.0
  0
LINE
  8
0
 62
     0
 10
48.1196
 20
48.0356
 30
0.0
 11
47.3191
 21
48.0356
 31
0.0
  0
LINE
  8
0
 62
     0
 10
47.3191
 20
48.0356
 30
0.0
 11
47.3191
 21
45.0868
 31
0.0
  0
LINE
  8
0
 62
     0
 10
47.3191
 20
45.0868
 30
0.0
 11
48.1196
 21
45.0868
 31
0.0
  0
LINE
  8
0
 62
     0
 10
48.1196
 20
45.0868
 30
0.0
 11
48.1196
 21
44.0863
 31
0.0
  0
LINE
  8
0
 62
     0
 10
48.1196
 20
44.0863
 30
0.0
 11
61.9689
 21
44.0863
 31
0.0
  0
LINE
  8
0
 62
     0
 10
61.9689
 20
44.0863
 30
0.0
 11
61.9689
 21
45.0868
 31
0.0
  0
LINE
  8
0
 62
     0
 10
61.9689
 20
45.0868
 30
0.0
 11
62.7697
 21
45.0868
 31
0.0
  0
LINE
  8
0
 62
     0
 10
62.7697
 20
45.0868
 30
0.0
 11
62.7697
 21
48.0356
 31
0.0
  0
LINE
  8
0
 62
     0
 10
62.7697
 20
48.0356
 30
0.0
 11
61.9689
 21
48.0356
 31
0.0
  0
LINE
  8
0
 62
     0
 10
61.9689
 20
48.0356
 30
0.0
 11
61.9689
 21
53.9859
 31
0.0
  0
LINE
  8
0
 62
     0
 10
61.9689
 20
53.9859
 30
0.0
 11
62.7697
 21
53.9859
 31
0.0
  0
LINE
  8
0
 62
     0
 10
62.7697
 20
53.9859
 30
0.0
 11
62.7697
 21
56.9366
 31
0.0
  0
LINE
  8
0
 62
     0
 10
62.7697
 20
56.9366
 30
0.0
 11
61.9689
 21
56.9366
 31
0.0
  0
LINE
  8
0
 62
     0
 10
61.9689
 20
56.9366
 30
0.0
 11
61.9689
 21
57.9356
 31
0.0
  0
LINE
  8
0
 62
     0
 10
61.9689
 20
57.9356
 30
0.0
 11
48.1196
 21
57.9356
 31
0.0
  0
LINE
  8
0
 62
     0
 10
67.1696
 20
57.9356
 30
0.0
 11
67.1696
 21
56.9366
 31
0.0
  0
LINE
  8
0
 62
     0
 10
67.1696
 20
56.9366
 30
0.0
 11
66.3691
 21
56.9366
 31
0.0
  0
LINE
  8
0
 62
     0
 10
66.3691
 20
56.9366
 30
0.0
 11
66.3691
 21
53.9859
 31
0.0
  0
LINE
  8
0
 62
     0
 10
66.3691
 20
53.9859
 30
0.0
 11
67.1696
 21
53.9859
 31
0.0
  0
LINE
  8
0
 62
     0
 10
67.1696
 20
53.9859
 30
0.0
 11
67.1696
 21
48.0356
 31
0.0
  0
LINE
  8
0
 62
     0
 10
67.1696
 20
48.0356
 30
0.0
 11
66.3691
 21
48.0356
 31
0.0
  0
LINE
  8
0
 62
     0
 10
66.3691
 20
48.0356
 30
0.0
 11
66.3691
 21
45.0868
 31
0.0
  0
LINE
  8
0
 62
     0
 10
66.3691
 20
45.0868
 30
0.0
 11
67.1696
 21
45.0868
 31
0.0
  0
LINE
  8
0
 62
     0
 10
67.1696
 20
45.0868
 30
0.0
 11
67.1696
 21
44.0863
 31
0.0
  0
LINE
  8
0
 62
     0
 10
67.1696
 20
44.0863
 30
0.0
 11
81.0189
 21
44.0863
 31
0.0
  0
LINE
  8
0
 62
     0
 10
81.0189
 20
44.0863
 30
0.0
 11
81.0189
 21
45.0868
 31
0.0
  0
LINE
  8
0
 62
     0
 10
81.0189
 20
45.0868
 30
0.0
 11
81.8197
 21
45.0868
 31
0.0
  0
LINE
  8
0
 62
     0
 10
81.8197
 20
45.0868
 30
0.0
 11
81.8197
 21
48.0356
 31
0.0
  0
LINE
  8
0
 62
     0
 10
81.8197
 20
48.0356
 30
0.0
 11
81.0189
 21
48.0356
 31
0.0
  0
LINE
  8
0
 62
     0
 10
81.0189
 20
48.0356
 30
0.0
 11
81.0189
 21
53.9859
 31
0.0
  0
LINE
  8
0
 62
     0
 10
81.0189
 20
53.9859
 30
0.0
 11
81.8197
 21
53.9859
 31
0.0
  0
LINE
  8
0
 62
     0
 10
81.8197
 20
53.9859
 30
0.0
 11
81.8197
 21
56.9366
 31
0.0
  0
LINE
  8
0
 62
     0
 10
81.8197
 20
56.9366
 30
0.0
 11
81.0189
 21
56.9366
 31
0.0
  0
LINE
  8
0
 62
     0
 10
81.0189
 20
56.9366
 30
0.0
 11
81.0189
 21
57.9356
 31
0.0
  0
LINE
  8
0
 62
     0
 10
81.0189
 20
57.9356
 30
0.0
 11
67.1696
 21
57.9356
 31
0.0
  0
LINE
  8
0
 62
     0
 10
86.2196
 20
57.9356
 30
0.0
 11
86.2196
 21
56.9366
 31
0.0
  0
LINE
  8
0
 62
     0
 10
86.2196
 20
56.9366
 30
0.0
 11
85.4191
 21
56.9366
 31
0.0
  0
LINE
  8
0
 62
     0
 10
85.4191
 20
56.9366
 30
0.0
 11
85.4191
 21
53.9859
 31
0.0
  0
LINE
  8
0
 62
     0
 10
85.4191
 20
53.9859
 30
0.0
 11
86.2196
 21
53.9859
 31
0.0
  0
LINE
  8
0
 62
     0
 10
86.2196
 20
53.9859
 30
0.0
 11
86.2196
 21
48.0356
 31
0.0
  0
LINE
  8
0
 62
     0
 10
86.2196
 20
48.0356
 30
0.0
 11
85.4191
 21
48.0356
 31
0.0
  0
LINE
  8
0
 62
     0
 10
85.4191
 20
48.0356
 30
0.0
 11
85.4191
 21
45.0868
 31
0.0
  0
LINE
  8
0
 62
     0
 10
85.4191
 20
45.0868
 30
0.0
 11
86.2196
 21
45.0868
 31
0.0
  0
LINE
  8
0
 62
     0
 10
86.2196
 20
45.0868
 30
0.0
 11
86.2196
 21
44.0863
 31
0.0
  0
LINE
  8
0
 62
     0
 10
86.2196
 20
44.0863
 30
0.0
 11
100.069
 21
44.0863
 31
0.0
  0
LINE
  8
0
 62
     0
 10
100.069
 20
44.0863
 30
0.0
 11
100.069
 21
45.0868
 31
0.0
  0
LINE
  8
0
 62
     0
 10
100.069
 20
45.0868
 30
0.0
 11
100.868
 21
45.0868
 31
0.0
  0
LINE
  8
0
 62
     0
 10
100.868
 20
45.0868
 30
0.0
 11
100.868
 21
48.0356
 31
0.0
  0
LINE
  8
0
 62
     0
 10
100.868
 20
48.0356
 30
0.0
 11
100.069
 21
48.0356
 31
0.0
  0
LINE
  8
0
 62
     0
 10
100.069
 20
48.0356
 30
0.0
 11
100.069
 21
53.9859
 31
0.0
  0
LINE
  8
0
 62
     0
 10
100.069
 20
53.9859
 30
0.0
 11
100.868
 21
53.9859
 31
0.0
  0
LINE
  8
0
 62
     0
 10
100.868
 20
53.9859
 30
0.0
 11
100.868
 21
56.9366
 31
0.0
  0
LINE
  8
0
 62
     0
 10
100.868
 20
56.9366
 30
0.0
 11
100.069
 21
56.9366
 31
0.0
  0
LINE
  8
0
 62
     0
 10
100.069
 20
56.9366
 30
0.0
 11
100.069
 21
57.9356
 31
0.0
  0
LINE
  8
0
 62
     0
 10
100.069
 20
57.9356
 30
0.0
 11
86.2196
 21
57.9356
 31
0.0
  0
LINE
  8
0
 62
     0
 10
105.27
 20
57.9356
 30
0.0
 11
105.27
 21
56.9366
 31
0.0
  0
LINE
  8
0
 62
     0
 10
105.27
 20
56.9366
 30
0.0
 11
104.469
 21
56.9366
 31
0.0
  0
LINE
  8
0
 62
     0
 10
104.469
 20
56.9366
 30
0.0
 11
104.469
 21
53.9859
 31
0.0
  0
LINE
  8
0
 62
     0
 10
104.469
 20
53.9859
 30
0.0
 11
105.27
 21
53.9859
 31
0.0
  0
LINE
  8
0
 62
     0
 10
105.27
 20
53.9859
 30
0.0
 11
105.27
 21
48.0356
 31
0.0
  0
LINE
  8
0
 62
     0
 10
105.27
 20
48.0356
 30
0.0
 11
104.469
 21
48.0356
 31
0.0
  0
LINE
  8
0
 62
     0
 10
104.469
 20
48.0356
 30
0.0
 11
104.469
 21
45.0868
 31
0.0
  0
LINE
  8
0
 62
     0
 10
104.469
 20
45.0868
 30
0.0
 11
105.27
 21
45.0868
 31
0.0
  0
LINE
  8
0
 62
     0
 10
105.27
 20
45.0868
 30
0.0
 11
105.27
 21
44.0863
 31
0.0
  0
LINE
  8
0
 62
     0
 10
105.27
 20
44.0863
 30
0.0
 11
119.119
 21
44.0863
 31
0.0
  0
LINE
  8
0
 62
     0
 10
119.119
 20
44.0863
 30
0.0
 11
119.119
 21
45.0868
 31
0.0
  0
LINE
  8
0
 62
     0
 10
119.119
 20
45.0868
 30
0.0
 11
119.918
 21
45.0868
 31
0.0
  0
LINE
  8
0
 62
     0
 10
119.918
 20
45.0868
 30
0.0
 11
119.918
 21
48.0356
 31
0.0
  0
LINE
  8
0
 62
     0
 10
119.918
 20
48.0356
 30
0.0
 11
119.119
 21
48.0356
 31
0.0
  0
LINE
  8
0
 62
     0
 10
119.119
 20
48.0356
 30
0.0
 11
119.119
 21
53.9859
 31
0.0
  0
LINE
  8
0
 62
     0
 10
119.119
 20
53.9859
 30
0.0
 11
119.918
 21
53.9859
 31
0.0
  0
LINE
  8
0
 62
     0
 10
119.918
 20
53.9859
 30
0.0
 11
119.918
 21
56.9366
 31
0.0
  0
LINE
  8
0
 62
     0
 10
119.918
 20
56.9366
 30
0.0
 11
119.119
 21
56.9366
 31
0.0
  0
LINE
  8
0
 62
     0
 10
119.119
 20
56.9366
 30
0.0
 11
119.119
 21
57.9356
 31
0.0
  0
LINE
  8
0
 62
     0
 10
119.119
 20
57.9356
 30
0.0
 11
105.27
 21
57.9356
 31
0.0
  0
LINE
  8
0
 62
     0
 10
124.32
 20
57.9356
 30
0.0
 11
124.32
 21
56.9366
 31
0.0
  0
LINE
  8
0
 62
     0
 10
124.32
 20
56.9366
 30
0.0
 11
123.519
 21
56.9366
 31
0.0
  0
LINE
  8
0
 62
     0
 10
123.519
 20
56.9366
 30
0.0
 11
123.519
 21
53.9859
 31
0.0
  0
LINE
  8
0
 62
     0
 10
123.519
 20
53.9859
 30
0.0
 11
124.32
 21
53.9859
 31
0.0
  0
LINE
  8
0
 62
     0
 10
124.32
 20
53.9859
 30
0.0
 11
124.32
 21
48.0356
 31
0.0
  0
LINE
  8
0
 62
     0
 10
124.32
 20
48.0356
 30
0.0
 11
123.519
 21
48.0356
 31
0.0
  0
LINE
  8
0
 62
     0
 10
123.519
 20
48.0356
 30
0.0
 11
123.519
 21
45.0868
 31
0.0
  0
LINE
  8
0
 62
     0
 10
123.519
 20
45.0868
 30
0.0
 11
124.32
 21
45.0868
 31
0.0
  0
LINE
  8
0
 62
     0
 10
124.32
 20
45.0868
 30
0.0
 11
124.32
 21
44.0863
 31
0.0
  0
LINE
  8
0
 62
     0
 10
124.32
 20
44.0863
 30
0.0
 11
138.169
 21
44.0863
 31
0.0
  0
LINE
  8
0
 62
     0
 10
138.169
 20
44.0863
 30
0.0
 11
138.169
 21
45.0868
 31
0.0
  0
LINE
  8
0
 62
     0
 10
138.169
 20
45.0868
 30
0.0
 11
138.97
 21
45.0868
 31
0.0
  0
LINE
  8
0
 62
     0
 10
138.97
 20
45.0868
 30
0.0
 11
138.97
 21
48.0356
 31
0.0
  0
LINE
  8
0
 62
     0
 10
138.97
 20
48.0356
 30
0.0
 11
138.169
 21
48.0356
 31
0.0
  0
LINE
  8
0
 62
     0
 10
138.169
 20
48.0356
 30
0.0
 11
138.169
 21
53.9859
 31
0.0
  0
LINE
  8
0
 62
     0
 10
138.169
 20
53.9859
 30
0.0
 11
138.97
 21
53.9859
 31
0.0
  0
LINE
  8
0
 62
     0
 10
138.97
 20
53.9859
 30
0.0
 11
138.97
 21
56.9366
 31
0.0
  0
LINE
  8
0
 62
     0
 10
138.97
 20
56.9366
 30
0.0
 11
138.169
 21
56.9366
 31
0.0
  0
LINE
  8
0
 62
     0
 10
138.169
 20
56.9366
 30
0.0
 11
138.169
 21
57.9356
 31
0.0
  0
LINE
  8
0
 62
     0
 10
138.169
 20
57.9356
 30
0.0
 11
124.32
 21
57.9356
 31
0.0
  0
LINE
  8
0
 62
     0
 10
10.0197
 20
76.9856
 30
0.0
 11
10.0197
 21
75.9866
 31
0.0
  0
LINE
  8
0
 62
     0
 10
10.0197
 20
75.9866
 30
0.0
 11
9.21907
 21
75.9866
 31
0.0
  0
LINE
  8
0
 62
     0
 10
9.21907
 20
75.9866
 30
0.0
 11
9.21907
 21
73.0359
 31
0.0
  0
LINE
  8
0
 62
     0
 10
9.21907
 20
73.0359
 30
0.0
 11
10.0197
 21
73.0359
 31
0.0
  0
LINE
  8
0
 62
     0
 10
10.0197
 20
73.0359
 30
0.0
 11
10.0197
 21
67.0856
 31
0.0
  0
LINE
  8
0
 62
     0
 10
10.0197
 20
67.0856
 30
0.0
 11
9.21907
 21
67.0856
 31
0.0
  0
LINE
  8
0
 62
     0
 10
9.21907
 20
67.0856
 30
0.0
 11
9.21907
 21
64.1368
 31
0.0
  0
LINE
  8
0
 62
     0
 10
9.21907
 20
64.1368
 30
0.0
 11
10.0197
 21
64.1368
 31
0.0
  0
LINE
  8
0
 62
     0
 10
10.0197
 20
64.1368
 30
0.0
 11
10.0197
 21
63.1363
 31
0.0
  0
LINE
  8
0
 62
     0
 10
10.0197
 20
63.1363
 30
0.0
 11
23.869
 21
63.1363
 31
0.0
  0
LINE
  8
0
 62
     0
 10
23.869
 20
63.1363
 30
0.0
 11
23.869
 21
64.1368
 31
0.0
  0
LINE
  8
0
 62
     0
 10
23.869
 20
64.1368
 30
0.0
 11
24.6696
 21
64.1368
 31
0.0
  0
LINE
  8
0
 62
     0
 10
24.6696
 20
64.1368
 30
0.0
 11
24.6696
 21
67.0856
 31
0.0
  0
LINE
  8
0
 62
     0
 10
24.6696
 20
67.0856
 30
0.0
 11
23.869
 21
67.0856
 31
0.0
  0
LINE
  8
0
 62
     0
 10
23.869
 20
67.0856
 30
0.0
 11
23.869
 21
73.0359
 31
0.0
  0
LINE
  8
0
 62
     0
 10
23.869
 20
73.0359
 30
0.0
 11
24.6696
 21
73.0359
 31
0.0
  0
LINE
  8
0
 62
     0
 10
24.6696
 20
73.0359
 30
0.0
 11
24.6696
 21
75.9866
 31
0.0
  0
LINE
  8
0
 62
     0
 10
24.6696
 20
75.9866
 30
0.0
 11
23.869
 21
75.9866
 31
0.0
  0
LINE
  8
0
 62
     0
 10
23.869
 20
75.9866
 30
0.0
 11
23.869
 21
76.9856
 31
0.0
  0
LINE
  8
0
 62
     0
 10
23.869
 20
76.9856
 30
0.0
 11
10.0197
 21
76.9856
 31
0.0
  0
LINE
  8
0
 62
     0
 10
29.0697
 20
76.9856
 30
0.0
 11
29.0697
 21
75.9866
 31
0.0
  0
LINE
  8
0
 62
     0
 10
29.0697
 20
75.9866
 30
0.0
 11
28.2691
 21
75.9866
 31
0.0
  0
LINE
  8
0
 62
     0
 10
28.2691
 20
75.9866
 30
0.0
 11
28.2691
 21
73.0359
 31
0.0
  0
LINE
  8
0
 62
     0
 10
28.2691
 20
73.0359
 30
0.0
 11
29.0697
 21
73.0359
 31
0.0
  0
LINE
  8
0
 62
     0
 10
29.0697
 20
73.0359
 30
0.0
 11
29.0697
 21
67.0856
 31
0.0
  0
LINE
  8
0
 62
     0
 10
29.0697
 20
67.0856
 30
0.0
 11
28.2691
 21
67.0856
 31
0.0
  0
LINE
  8
0
 62
     0
 10
28.2691
 20
67.0856
 30
0.0
 11
28.2691
 21
64.1368
 31
0.0
  0
LINE
  8
0
 62
     0
 10
28.2691
 20
64.1368
 30
0.0
 11
29.0697
 21
64.1368
 31
0.0
  0
LINE
  8
0
 62
     0
 10
29.0697
 20
64.1368
 30
0.0
 11
29.0697
 21
63.1363
 31
0.0
  0
LINE
  8
0
 62
     0
 10
29.0697
 20
63.1363
 30
0.0
 11
42.9189
 21
63.1363
 31
0.0
  0
LINE
  8
0
 62
     0
 10
42.9189
 20
63.1363
 30
0.0
 11
42.9189
 21
64.1368
 31
0.0
  0
LINE
  8
0
 62
     0
 10
42.9189
 20
64.1368
 30
0.0
 11
43.7198
 21
64.1368
 31
0.0
  0
LINE
  8
0
 62
     0
 10
43.7198
 20
64.1368
 30
0.0
 11
43.7198
 21
67.0856
 31
0.0
  0
LINE
  8
0
 62
     0
 10
43.7198
 20
67.0856
 30
0.0
 11
42.9189
 21
67.0856
 31
0.0
  0
LINE
  8
0
 62
     0
 10
42.9189
 20
67.0856
 30
0.0
 11
42.9189
 21
73.0359
 31
0.0
  0
LINE
  8
0
 62
     0
 10
42.9189
 20
73.0359
 30
0.0
 11
43.7198
 21
73.0359
 31
0.0
  0
LINE
  8
0
 62
     0
 10
43.7198
 20
73.0359
 30
0.0
 11
43.7198
 21
75.9866
 31
0.0
  0
LINE
  8
0
 62
     0
 10
43.7198
 20
75.9866
 30
0.0
 11
42.9189
 21
75.9866
 31
0.0
  0
LINE
  8
0
 62
     0
 10
42.9189
 20
75.9866
 30
0.0
 11
42.9189
 21
76.9856
 31
0.0
  0
LINE
  8
0
 62
     0
 10
42.9189
 20
76.9856
 30
0.0
 11
29.0697
 21
76.9856
 31
0.0
  0
LINE
  8
0
 62
     0
 10
48.1196
 20
76.9856
 30
0.0
 11
48.1196
 21
75.9866
 31
0.0
  0
LINE
  8
0
 62
     0
 10
48.1196
 20
75.9866
 30
0.0
 11
47.3191
 21
75.9866
 31
0.0
  0
LINE
  8
0
 62
     0
 10
47.3191
 20
75.9866
 30
0.0
 11
47.3191
 21
73.0359
 31
0.0
  0
LINE
  8
0
 62
     0
 10
47.3191
 20
73.0359
 30
0.0
 11
48.1196
 21
73.0359
 31
0.0
  0
LINE
  8
0
 62
     0
 10
48.1196
 20
73.0359
 30
0.0
 11
48.1196
 21
67.0856
 31
0.0
  0
LINE
  8
0
 62
     0
 10
48.1196
 20
67.0856
 30
0.0
 11
47.3191
 21
67.0856
 31
0.0
  0
LINE
  8
0
 62
     0
 10
47.3191
 20
67.0856
 30
0.0
 11
47.3191
 21
64.1368
 31
0.0
  0
LINE
  8
0
 62
     0
 10
47.3191
 20
64.1368
 30
0.0
 11
48.1196
 21
64.1368
 31
0.0
  0
LINE
  8
0
 62
     0
 10
48.1196
 20
64.1368
 30
0.0
 11
48.1196
 21
63.1363
 31
0.0
  0
LINE
  8
0
 62
     0
 10
48.1196
 20
63.1363
 30
0.0
 11
61.9689
 21
63.1363
 31
0.0
  0
LINE
  8
0
 62
     0
 10
61.9689
 20
63.1363
 30
0.0
 11
61.9689
 21
64.1368
 31
0.0
  0
LINE
  8
0
 62
     0
 10
61.9689
 20
64.1368
 30
0.0
 11
62.7697
 21
64.1368
 31
0.0
  0
LINE
  8
0
 62
     0
 10
62.7697
 20
64.1368
 30
0.0
 11
62.7697
 21
67.0856
 31
0.0
  0
LINE
  8
0
 62
     0
 10
62.7697
 20
67.0856
 30
0.0
 11
61.9689
 21
67.0856
 31
0.0
  0
LINE
  8
0
 62
     0
 10
61.9689
 20
67.0856
 30
0.0
 11
61.9689
 21
73.0359
 31
0.0
  0
LINE
  8
0
 62
     0
 10
61.9689
 20
73.0359
 30
0.0
 11
62.7697
 21
73.0359
 31
0.0
  0
LINE
  8
0
 62
     0
 10
62.7697
 20
73.0359
 30
0.0
 11
62.7697
 21
75.9866
 31
0.0
  0
LINE
  8
0
 62
     0
 10
62.7697
 20
75.9866
 30
0.0
 11
61.9689
 21
75.9866
 31
0.0
  0
LINE
  8
0
 62
     0
 10
61.9689
 20
75.9866
 30
0.0
 11
61.9689
 21
76.9856
 31
0.0
  0
LINE
  8
0
 62
     0
 10
61.9689
 20
76.9856
 30
0.0
 11
48.1196
 21
76.9856
 31
0.0
  0
LINE
  8
0
 62
     0
 10
67.1696
 20
76.9856
 30
0.0
 11
67.1696
 21
75.9866
 31
0.0
  0
LINE
  8
0
 62
     0
 10
67.1696
 20
75.9866
 30
0.0
 11
66.3691
 21
75.9866
 31
0.0
  0
LINE
  8
0
 62
     0
 10
66.3691
 20
75.9866
 30
0.0
 11
66.3691
 21
73.0359
 31
0.0
  0
LINE
  8
0
 62
     0
 10
66.3691
 20
73.0359
 30
0.0
 11
67.1696
 21
73.0359
 31
0.0
  0
LINE
  8
0
 62
     0
 10
67.1696
 20
73.0359
 30
0.0
 11
67.1696
 21
67.0856
 31
0.0
  0
LINE
  8
0
 62
     0
 10
67.1696
 20
67.0856
 30
0.0
 11
66.3691
 21
67.0856
 31
0.0
  0
LINE
  8
0
 62
     0
 10
66.3691
 20
67.0856
 30
0.0
 11
66.3691
 21
64.1368
 31
0.0
  0
LINE
  8
0
 62
     0
 10
66.3691
 20
64.1368
 30
0.0
 11
67.1696
 21
64.1368
 31
0.0
  0
LINE
  8
0
 62
     0
 10
67.1696
 20
64.1368
 30
0.0
 11
67.1696
 21
63.1363
 31
0.0
  0
LINE
  8
0
 62
     0
 10
67.1696
 20
63.1363
 30
0.0
 11
81.0189
 21
63.1363
 31
0.0
  0
LINE
  8
0
 62
     0
 10
81.0189
 20
63.1363
 30
0.0
 11
81.0189
 21
64.1368
 31
0.0
  0
LINE
  8
0
 62
     0
 10
81.0189
 20
64.1368
 30
0.0
 11
81.8197
 21
64.1368
 31
0.0
  0
LINE
  8
0
 62
     0
 10
81.8197
 20
64.1368
 30
0.0
 11
81.8197
 21
67.0856
 31
0.0
  0
LINE
  8
0
 62
     0
 10
81.8197
 20
67.0856
 30
0.0
 11
81.0189
 21
67.0856
 31
0.0
  0
LINE
  8
0
 62
     0
 10
81.0189
 20
67.0856
 30
0.0
 11
81.0189
 21
73.0359
 31
0.0
  0
LINE
  8
0
 62
     0
 10
81.0189
 20
73.0359
 30
0.0
 11
81.8197
 21
73.0359
 31
0.0
  0
LINE
  8
0
 62
     0
 10
81.8197
 20
73.0359
 30
0.0
 11
81.8197
 21
75.9866
 31
0.0
  0
LINE
  8
0
 62
     0
 10
81.8197
 20
75.9866
 30
0.0
 11
81.0189
 21
75.9866
 31
0.0
  0
LINE
  8
0
 62
     0
 10
81.0189
 20
75.9866
 30
0.0
 11
81.0189
 21
76.9856
 31
0.0
  0
LINE
  8
0
 62
     0
 10
81.0189
 20
76.9856
 30
0.0
 11
67.1696
 21
76.9856
 31
0.0
  0
LINE
  8
0
 62
     0
 10
86.2196
 20
76.9856
 30
0.0
 11
86.2196
 21
75.9866
 31
0.0
  0
LINE
  8
0
 62
     0
 10
86.2196
 20
75.9866
 30
0.0
 11
85.4191
 21
75.9866
 31
0.0
  0
LINE
  8
0
 62
     0
 10
85.4191
 20
75.9866
 30
0.0
 11
85.4191
 21
73.0359
 31
0.0
  0
LINE
  8
0
 62
     0
 10
85.4191
 20
73.0359
 30
0.0
 11
86.2196
 21
73.0359
 31
0.0
  0
LINE
  8
0
 62
     0
 10
86.2196
 20
73.0359
 30
0.0
 11
86.2196
 21
67.0856
 31
0.0
  0
LINE
  8
0
 62
     0
 10
86.2196
 20
67.0856
 30
0.0
 11
85.4191
 21
67.0856
 31
0.0
  0
LINE
  8
0
 62
     0
 10
85.4191
 20
67.0856
 30
0.0
 11
85.4191
 21
64.1368
 31
0.0
  0
LINE
  8
0
 62
     0
 10
85.4191
 20
64.1368
 30
0.0
 11
86.2196
 21
64.1368
 31
0.0
  0
LINE
  8
0
 62
     0
 10
86.2196
 20
64.1368
 30
0.0
 11
86.2196
 21
63.1363
 31
0.0
  0
LINE
  8
0
 62
     0
 10
86.2196
 20
63.1363
 30
0.0
 11
100.069
 21
63.1363
 31
0.0
  0
LINE
  8
0
 62
     0
 10
100.069
 20
63.1363
 30
0.0
 11
100.069
 21
64.1368
 31
0.0
  0
LINE
  8
0
 62
     0
 10
100.069
 20
64.1368
 30
0.0
 11
100.868
 21
64.1368
 31
0.0
  0
LINE
  8
0
 62
     0
 10
100.868
 20
64.1368
 30
0.0
 11
100.868
 21
67.0856
 31
0.0
  0
LINE
  8
0
 62
     0
 10
100.868
 20
67.0856
 30
0.0
 11
100.069
 21
67.0856
 31
0.0
  0
LINE
  8
0
 62
     0
 10
100.069
 20
67.0856
 30
0.0
 11
100.069
 21
73.0359
 31
0.0
  0
LINE
  8
0
 62
     0
 10
100.069
 20
73.0359
 30
0.0
 11
100.868
 21
73.0359
 31
0.0
  0
LINE
  8
0
 62
     0
 10
100.868
 20
73.0359
 30
0.0
 11
100.868
 21
75.9866
 31
0.0
  0
LINE
  8
0
 62
     0
 10
100.868
 20
75.9866
 30
0.0
 11
100.069
 21
75.9866
 31
0.0
  0
LINE
  8
0
 62
     0
 10
100.069
 20
75.9866
 30
0.0
 11
100.069
 21
76.9856
 31
0.0
  0
LINE
  8
0
 62
     0
 10
100.069
 20
76.9856
 30
0.0
 11
86.2196
 21
76.9856
 31
0.0
  0
LINE
  8
0
 62
     0
 10
105.27
 20
76.9856
 30
0.0
 11
105.27
 21
75.9866
 31
0.0
  0
LINE
  8
0
 62
     0
 10
105.27
 20
75.9866
 30
0.0
 11
104.469
 21
75.9866
 31
0.0
  0
LINE
  8
0
 62
     0
 10
104.469
 20
75.9866
 30
0.0
 11
104.469
 21
73.0359
 31
0.0
  0
LINE
  8
0
 62
     0
 10
104.469
 20
73.0359
 30
0.0
 11
105.27
 21
73.0359
 31
0.0
  0
LINE
  8
0
 62
     0
 10
105.27
 20
73.0359
 30
0.0
 11
105.27
 21
67.0856
 31
0.0
  0
LINE
  8
0
 62
     0
 10
105.27
 20
67.0856
 30
0.0
 11
104.469
 21
67.0856
 31
0.0
  0
LINE
  8
0
 62
     0
 10
104.469
 20
67.0856
 30
0.0
 11
104.469
 21
64.1368
 31
0.0
  0
LINE
  8
0
 62
     0
 10
104.469
 20
64.1368
 30
0.0
 11
105.27
 21
64.1368
 31
0.0
  0
LINE
  8
0
 62
     0
 10
105.27
 20
64.1368
 30
0.0
 11
105.27
 21
63.1363
 31
0.0
  0
LINE
  8
0
 62
     0
 10
105.27
 20
63.1363
 30
0.0
 11
119.119
 21
63.1363
 31
0.0
  0
LINE
  8
0
 62
     0
 10
119.119
 20
63.1363
 30
0.0
 11
119.119
 21
64.1368
 31
0.0
  0
LINE
  8
0
 62
     0
 10
119.119
 20
64.1368
 30
0.0
 11
119.918
 21
64.1368
 31
0.0
  0
LINE
  8
0
 62
     0
 10
119.918
 20
64.1368
 30
0.0
 11
119.918
 21
67.0856
 31
0.0
  0
LINE
  8
0
 62
     0
 10
119.918
 20
67.0856
 30
0.0
 11
119.119
 21
67.0856
 31
0.0
  0
LINE
  8
0
 62
     0
 10
119.119
 20
67.0856
 30
0.0
 11
119.119
 21
73.0359
 31
0.0
  0
LINE
  8
0
 62
     0
 10
119.119
 20
73.0359
 30
0.0
 11
119.918
 21
73.0359
 31
0.0
  0
LINE
  8
0
 62
     0
 10
119.918
 20
73.0359
 30
0.0
 11
119.918
 21
75.9866
 31
0.0
  0
LINE
  8
0
 62
     0
 10
119.918
 20
75.9866
 30
0.0
 11
119.119
 21
75.9866
 31
0.0
  0
LINE
  8
0
 62
     0
 10
119.119
 20
75.9866
 30
0.0
 11
119.119
 21
76.9856
 31
0.0
  0
LINE
  8
0
 62
     0
 10
119.119
 20
76.9856
 30
0.0
 11
105.27
 21
76.9856
 31
0.0
  0
LINE
  8
0
 62
     0
 10
124.32
 20
76.9856
 30
0.0
 11
124.32
 21
75.9866
 31
0.0
  0
LINE
  8
0
 62
     0
 10
124.32
 20
75.9866
 30
0.0
 11
123.519
 21
75.9866
 31
0.0
  0
LINE
  8
0
 62
     0
 10
123.519
 20
75.9866
 30
0.0
 11
123.519
 21
73.0359
 31
0.0
  0
LINE
  8
0
 62
     0
 10
123.519
 20
73.0359
 30
0.0
 11
124.32
 21
73.0359
 31
0.0
  0
LINE
  8
0
 62
     0
 10
124.32
 20
73.0359
 30
0.0
 11
124.32
 21
67.0856
 31
0.0
  0
LINE
  8
0
 62
     0
 10
124.32
 20
67.0856
 30
0.0
 11
123.519
 21
67.0856
 31
0.0
  0
LINE
  8
0
 62
     0
 10
123.519
 20
67.0856
 30
0.0
 11
123.519
 21
64.1368
 31
0.0
  0
LINE
  8
0
 62
     0
 10
123.519
 20
64.1368
 30
0.0
 11
124.32
 21
64.1368
 31
0.0
  0
LINE
  8
0
 62
     0
 10
124.32
 20
64.1368
 30
0.0
 11
124.32
 21
63.1363
 31
0.0
  0
LINE
  8
0
 62
     0
 10
124.32
 20
63.1363
 30
0.0
 11
138.169
 21
63.1363
 31
0.0
  0
LINE
  8
0
 62
     0
 10
138.169
 20
63.1363
 30
0.0
 11
138.169
 21
64.1368
 31
0.0
  0
LINE
  8
0
 62
     0
 10
138.169
 20
64.1368
 30
0.0
 11
138.97
 21
64.1368
 31
0.0
  0
LINE
  8
0
 62
     0
 10
138.97
 20
64.1368
 30
0.0
 11
138.97
 21
67.0856
 31
0.0
  0
LINE
  8
0
 62
     0
 10
138.97
 20
67.0856
 30
0.0
 11
138.169
 21
67.0856
 31
0.0
  0
LINE
  8
0
 62
     0
 10
138.169
 20
67.0856
 30
0.0
 11
138.169
 21
73.0359
 31
0.0
  0
LINE
  8
0
 62
     0
 10
138.169
 20
73.0359
 30
0.0
 11
138.97
 21
73.0359
 31
0.0
  0
LINE
  8
0
 62
     0
 10
138.97
 20
73.0359
 30
0.0
 11
138.97
 21
75.9866
 31
0.0
  0
LINE
  8
0
 62
     0
 10
138.97
 20
75.9866
 30
0.0
 11
138.169
 21
75.9866
 31
0.0
  0
LINE
  8
0
 62
     0
 10
138.169
 20
75.9866
 30
0.0
 11
138.169
 21
76.9856
 31
0.0
  0
LINE
  8
0
 62
     0
 10
138.169
 20
76.9856
 30
0.0
 11
124.32
 21
76.9856
 31
0.0
  0
LINE
  8
0
 62
     0
 10
3.97701
 20
80.6566
 30
0.0
 11
3.85988
 21
80.6429
 31
0.0
  0
LINE
  8
0
 62
     0
 10
3.85988
 20
80.6429
 30
0.0
 11
3.74414
 21
80.6207
 31
0.0
  0
LINE
  8
0
 62
     0
 10
3.74414
 20
80.6207
 30
0.0
 11
3.63114
 21
80.5879
 31
0.0
  0
LINE
  8
0
 62
     0
 10
3.63114
 20
80.5879
 30
0.0
 11
3.51951
 21
80.5476
 31
0.0
  0
LINE
  8
0
 62
     0
 10
3.51951
 20
80.5476
 30
0.0
 11
3.4134
 21
80.4982
 31
0.0
  0
LINE
  8
0
 62
     0
 10
3.4134
 20
80.4982
 30
0.0
 11
3.31005
 21
80.4404
 31
0.0
  0
LINE
  8
0
 62
     0
 10
3.31005
 20
80.4404
 30
0.0
 11
3.21221
 21
80.3755
 31
0.0
  0
LINE
  8
0
 62
     0
 10
3.21221
 20
80.3755
 30
0.0
 11
3.11988
 21
80.3025
 31
0.0
  0
LINE
  8
0
 62
     0
 10
3.11988
 20
80.3025
 30
0.0
 11
3.03306
 21
80.2224
 31
0.0
  0
LINE
  8
0
 62
     0
 10
3.03306
 20
80.2224
 30
0.0
 11
2.95313
 21
80.1356
 31
0.0
  0
LINE
  8
0
 62
     0
 10
2.95313
 20
80.1356
 30
0.0
 11
2.8801
 21
80.0435
 31
0.0
  0
LINE
  8
0
 62
     0
 10
2.8801
 20
80.0435
 30
0.0
 11
2.81533
 21
79.9454
 31
0.0
  0
LINE
  8
0
 62
     0
 10
2.81533
 20
79.9454
 30
0.0
 11
2.75746
 21
79.8421
 31
0.0
  0
LINE
  8
0
 62
     0
 10
2.75746
 20
79.8421
 30
0.0
 11
2.70784
 21
79.7359
 31
0.0
  0
LINE
  8
0
 62
     0
 10
2.70784
 20
79.7359
 30
0.0
 11
2.66788
 21
79.6244
 31
0.0
  0
LINE
  8
0
 62
     0
 10
2.66788
 20
79.6244
 30
0.0
 11
2.63481
 21
79.5115
 31
0.0
  0
LINE
  8
0
 62
     0
 10
2.63481
 20
79.5115
 30
0.0
 11
2.61276
 21
79.3958
 31
0.0
  0
LINE
  8
0
 62
     0
 10
2.61276
 20
79.3958
 30
0.0
 11
2.59898
 21
79.2787
 31
0.0
  0
LINE
  8
0
 62
     0
 10
2.59898
 20
79.2787
 30
0.0
 11
2.59347
 21
79.1616
 31
0.0
  0
LINE
  8
0
 62
     0
 10
2.59347
 20
79.1616
 30
0.0
 11
2.59898
 21
79.0444
 31
0.0
  0
LINE
  8
0
 62
     0
 10
2.59898
 20
79.0444
 30
0.0
 11
2.61276
 21
78.927
 31
0.0
  0
LINE
  8
0
 62
     0
 10
2.61276
 20
78.927
 30
0.0
 11
2.63481
 21
78.8113
 31
0.0
  0
LINE
  8
0
 62
     0
 10
2.63481
 20
78.8113
 30
0.0
 11
2.66788
 21
78.6984
 31
0.0
  0
LINE
  8
0
 62
     0
 10
2.66788
 20
78.6984
 30
0.0
 11
2.70784
 21
78.5869
 31
0.0
  0
LINE
  8
0
 62
     0
 10
2.70784
 20
78.5869
 30
0.0
 11
2.75746
 21
78.4807
 31
0.0
  0
LINE
  8
0
 62
     0
 10
2.75746
 20
78.4807
 30
0.0
 11
2.81533
 21
78.3788
 31
0.0
  0
LINE
  8
0
 62
     0
 10
2.81533
 20
78.3788
 30
0.0
 11
2.8801
 21
78.2796
 31
0.0
  0
LINE
  8
0
 62
     0
 10
2.8801
 20
78.2796
 30
0.0
 11
2.95313
 21
78.1872
 31
0.0
  0
LINE
  8
0
 62
     0
 10
2.95313
 20
78.1872
 30
0.0
 11
3.03306
 21
78.1018
 31
0.0
  0
LINE
  8
0
 62
     0
 10
3.03306
 20
78.1018
 30
0.0
 11
3.11988
 21
78.0203
 31
0.0
  0
LINE
  8
0
 62
     0
 10
3.11988
 20
78.0203
 30
0.0
 11
3.21221
 21
77.9487
 31
0.0
  0
LINE
  8
0
 62
     0
 10
3.21221
 20
77.9487
 30
0.0
 11
3.31005
 21
77.8828
 31
0.0
  0
LINE
  8
0
 62
     0
 10
3.31005
 20
77.8828
 30
0.0
 11
3.4134
 21
77.8245
 31
0.0
  0
LINE
  8
0
 62
     0
 10
3.4134
 20
77.8245
 30
0.0
 11
3.51951
 21
77.7766
 31
0.0
  0
LINE
  8
0
 62
     0
 10
3.51951
 20
77.7766
 30
0.0
 11
3.63114
 21
77.7353
 31
0.0
  0
LINE
  8
0
 62
     0
 10
3.63114
 20
77.7353
 30
0.0
 11
3.74414
 21
77.7035
 31
0.0
  0
LINE
  8
0
 62
     0
 10
3.74414
 20
77.7035
 30
0.0
 11
3.85988
 21
77.6799
 31
0.0
  0
LINE
  8
0
 62
     0
 10
3.85988
 20
77.6799
 30
0.0
 11
3.97701
 21
77.6661
 31
0.0
  0
LINE
  8
0
 62
     0
 10
3.97701
 20
77.6661
 30
0.0
 11
4.09416
 21
77.6609
 31
0.0
  0
LINE
  8
0
 62
     0
 10
4.09416
 20
77.6609
 30
0.0
 11
4.21128
 21
77.6661
 31
0.0
  0
LINE
  8
0
 62
     0
 10
4.21128
 20
77.6661
 30
0.0
 11
4.32841
 21
77.6799
 31
0.0
  0
LINE
  8
0
 62
     0
 10
4.32841
 20
77.6799
 30
0.0
 11
4.44419
 21
77.7035
 31
0.0
  0
LINE
  8
0
 62
     0
 10
4.44419
 20
77.7035
 30
0.0
 11
4.55718
 21
77.7353
 31
0.0
  0
LINE
  8
0
 62
     0
 10
4.55718
 20
77.7353
 30
0.0
 11
4.6688
 21
77.7766
 31
0.0
  0
LINE
  8
0
 62
     0
 10
4.6688
 20
77.7766
 30
0.0
 11
4.77492
 21
77.8245
 31
0.0
  0
LINE
  8
0
 62
     0
 10
4.77492
 20
77.8245
 30
0.0
 11
4.87687
 21
77.8828
 31
0.0
  0
LINE
  8
0
 62
     0
 10
4.87687
 20
77.8828
 30
0.0
 11
4.97611
 21
77.9487
 31
0.0
  0
LINE
  8
0
 62
     0
 10
4.97611
 20
77.9487
 30
0.0
 11
5.06843
 21
78.0203
 31
0.0
  0
LINE
  8
0
 62
     0
 10
5.06843
 20
78.0203
 30
0.0
 11
5.15387
 21
78.1018
 31
0.0
  0
LINE
  8
0
 62
     0
 10
5.15387
 20
78.1018
 30
0.0
 11
5.23515
 21
78.1872
 31
0.0
  0
LINE
  8
0
 62
     0
 10
5.23515
 20
78.1872
 30
0.0
 11
5.30684
 21
78.2796
 31
0.0
  0
LINE
  8
0
 62
     0
 10
5.30684
 20
78.2796
 30
0.0
 11
5.37298
 21
78.3788
 31
0.0
  0
LINE
  8
0
 62
     0
 10
5.37298
 20
78.3788
 30
0.0
 11
5.43084
 21
78.4807
 31
0.0
  0
LINE
  8
0
 62
     0
 10
5.43084
 20
78.4807
 30
0.0
 11
5.4791
 21
78.5869
 31
0.0
  0
LINE
  8
0
 62
     0
 10
5.4791
 20
78.5869
 30
0.0
 11
5.52041
 21
78.6984
 31
0.0
  0
LINE
  8
0
 62
     0
 10
5.52041
 20
78.6984
 30
0.0
 11
5.55212
 21
78.8113
 31
0.0
  0
LINE
  8
0
 62
     0
 10
5.55212
 20
78.8113
 30
0.0
 11
5.57555
 21
78.927
 31
0.0
  0
LINE
  8
0
 62
     0
 10
5.57555
 20
78.927
 30
0.0
 11
5.58934
 21
79.0444
 31
0.0
  0
LINE
  8
0
 62
     0
 10
5.58934
 20
79.0444
 30
0.0
 11
5.59484
 21
79.1616
 31
0.0
  0
LINE
  8
0
 62
     0
 10
5.59484
 20
79.1616
 30
0.0
 11
5.58934
 21
79.2787
 31
0.0
  0
LINE
  8
0
 62
     0
 10
5.58934
 20
79.2787
 30
0.0
 11
5.57555
 21
79.3958
 31
0.0
  0
LINE
  8
0
 62
     0
 10
5.57555
 20
79.3958
 30
0.0
 11
5.55212
 21
79.5115
 31
0.0
  0
LINE
  8
0
 62
     0
 10
5.55212
 20
79.5115
 30
0.0
 11
5.52041
 21
79.6244
 31
0.0
  0
LINE
  8
0
 62
     0
 10
5.52041
 20
79.6244
 30
0.0
 11
5.4791
 21
79.7359
 31
0.0
  0
LINE
  8
0
 62
     0
 10
5.4791
 20
79.7359
 30
0.0
 11
5.43084
 21
79.8421
 31
0.0
  0
LINE
  8
0
 62
     0
 10
5.43084
 20
79.8421
 30
0.0
 11
5.37298
 21
79.9454
 31
0.0
  0
LINE
  8
0
 62
     0
 10
5.37298
 20
79.9454
 30
0.0
 11
5.30684
 21
80.0435
 31
0.0
  0
LINE
  8
0
 62
     0
 10
5.30684
 20
80.0435
 30
0.0
 11
5.23515
 21
80.1356
 31
0.0
  0
LINE
  8
0
 62
     0
 10
5.23515
 20
80.1356
 30
0.0
 11
5.15387
 21
80.2224
 31
0.0
  0
LINE
  8
0
 62
     0
 10
5.15387
 20
80.2224
 30
0.0
 11
5.06843
 21
80.3025
 31
0.0
  0
LINE
  8
0
 62
     0
 10
5.06843
 20
80.3025
 30
0.0
 11
4.97611
 21
80.3755
 31
0.0
  0
LINE
  8
0
 62
     0
 10
4.97611
 20
80.3755
 30
0.0
 11
4.87687
 21
80.4404
 31
0.0
  0
LINE
  8
0
 62
     0
 10
4.87687
 20
80.4404
 30
0.0
 11
4.77492
 21
80.4982
 31
0.0
  0
LINE
  8
0
 62
     0
 10
4.77492
 20
80.4982
 30
0.0
 11
4.6688
 21
80.5476
 31
0.0
  0
LINE
  8
0
 62
     0
 10
4.6688
 20
80.5476
 30
0.0
 11
4.55718
 21
80.5879
 31
0.0
  0
LINE
  8
0
 62
     0
 10
4.55718
 20
80.5879
 30
0.0
 11
4.44419
 21
80.6207
 31
0.0
  0
LINE
  8
0
 62
     0
 10
4.44419
 20
80.6207
 30
0.0
 11
4.32841
 21
80.6429
 31
0.0
  0
LINE
  8
0
 62
     0
 10
4.32841
 20
80.6429
 30
0.0
 11
4.21128
 21
80.6566
 31
0.0
  0
LINE
  8
0
 62
     0
 10
4.21128
 20
80.6566
 30
0.0
 11
4.09416
 21
80.6609
 31
0.0
  0
LINE
  8
0
 62
     0
 10
4.09416
 20
80.6609
 30
0.0
 11
3.97701
 21
80.6566
 31
0.0
  0
LINE
  8
0
 62
     0
 10
143.977
 20
80.6566
 30
0.0
 11
143.86
 21
80.6429
 31
0.0
  0
LINE
  8
0
 62
     0
 10
143.86
 20
80.6429
 30
0.0
 11
143.745
 21
80.6207
 31
0.0
  0
LINE
  8
0
 62
     0
 10
143.745
 20
80.6207
 30
0.0
 11
143.632
 21
80.5879
 31
0.0
  0
LINE
  8
0
 62
     0
 10
143.632
 20
80.5879
 30
0.0
 11
143.52
 21
80.5476
 31
0.0
  0
LINE
  8
0
 62
     0
 10
143.52
 20
80.5476
 30
0.0
 11
143.414
 21
80.4982
 31
0.0
  0
LINE
  8
0
 62
     0
 10
143.414
 20
80.4982
 30
0.0
 11
143.312
 21
80.4404
 31
0.0
  0
LINE
  8
0
 62
     0
 10
143.312
 20
80.4404
 30
0.0
 11
143.214
 21
80.3755
 31
0.0
  0
LINE
  8
0
 62
     0
 10
143.214
 20
80.3755
 30
0.0
 11
143.12
 21
80.3025
 31
0.0
  0
LINE
  8
0
 62
     0
 10
143.12
 20
80.3025
 30
0.0
 11
143.035
 21
80.2224
 31
0.0
  0
LINE
  8
0
 62
     0
 10
143.035
 20
80.2224
 30
0.0
 11
142.955
 21
80.1356
 31
0.0
  0
LINE
  8
0
 62
     0
 10
142.955
 20
80.1356
 30
0.0
 11
142.882
 21
80.0435
 31
0.0
  0
LINE
  8
0
 62
     0
 10
142.882
 20
80.0435
 30
0.0
 11
142.817
 21
79.9454
 31
0.0
  0
LINE
  8
0
 62
     0
 10
142.817
 20
79.9454
 30
0.0
 11
142.758
 21
79.8421
 31
0.0
  0
LINE
  8
0
 62
     0
 10
142.758
 20
79.8421
 30
0.0
 11
142.71
 21
79.7359
 31
0.0
  0
LINE
  8
0
 62
     0
 10
142.71
 20
79.7359
 30
0.0
 11
142.668
 21
79.6244
 31
0.0
  0
LINE
  8
0
 62
     0
 10
142.668
 20
79.6244
 30
0.0
 11
142.637
 21
79.5115
 31
0.0
  0
LINE
  8
0
 62
     0
 10
142.637
 20
79.5115
 30
0.0
 11
142.613
 21
79.3958
 31
0.0
  0
LINE
  8
0
 62
     0
 10
142.613
 20
79.3958
 30
0.0
 11
142.599
 21
79.2787
 31
0.0
  0
LINE
  8
0
 62
     0
 10
142.599
 20
79.2787
 30
0.0
 11
142.595
 21
79.1616
 31
0.0
  0
LINE
  8
0
 62
     0
 10
142.595
 20
79.1616
 30
0.0
 11
142.599
 21
79.0444
 31
0.0
  0
LINE
  8
0
 62
     0
 10
142.599
 20
79.0444
 30
0.0
 11
142.613
 21
78.927
 31
0.0
  0
LINE
  8
0
 62
     0
 10
142.613
 20
78.927
 30
0.0
 11
142.637
 21
78.8113
 31
0.0
  0
LINE
  8
0
 62
     0
 10
142.637
 20
78.8113
 30
0.0
 11
142.668
 21
78.6984
 31
0.0
  0
LINE
  8
0
 62
     0
 10
142.668
 20
78.6984
 30
0.0
 11
142.71
 21
78.5869
 31
0.0
  0
LINE
  8
0
 62
     0
 10
142.71
 20
78.5869
 30
0.0
 11
142.758
 21
78.4807
 31
0.0
  0
LINE
  8
0
 62
     0
 10
142.758
 20
78.4807
 30
0.0
 11
142.817
 21
78.3788
 31
0.0
  0
LINE
  8
0
 62
     0
 10
142.817
 20
78.3788
 30
0.0
 11
142.882
 21
78.2796
 31
0.0
  0
LINE
  8
0
 62
     0
 10
142.882
 20
78.2796
 30
0.0
 11
142.955
 21
78.1872
 31
0.0
  0
LINE
  8
0
 62
     0
 10
142.955
 20
78.1872
 30
0.0
 11
143.035
 21
78.1018
 31
0.0
  0
LINE
  8
0
 62
     0
 10
143.035
 20
78.1018
 30
0.0
 11
143.12
 21
78.0203
 31
0.0
  0
LINE
  8
0
 62
     0
 10
143.12
 20
78.0203
 30
0.0
 11
143.214
 21
77.9487
 31
0.0
  0
LINE
  8
0
 62
     0
 10
143.214
 20
77.9487
 30
0.0
 11
143.312
 21
77.8828
 31
0.0
  0
LINE
  8
0
 62
     0
 10
143.312
 20
77.8828
 30
0.0
 11
143.414
 21
77.8245
 31
0.0
  0
LINE
  8
0
 62
     0
 10
143.414
 20
77.8245
 30
0.0
 11
143.52
 21
77.7766
 31
0.0
  0
LINE
  8
0
 62
     0
 10
143.52
 20
77.7766
 30
0.0
 11
143.632
 21
77.7353
 31
0.0
  0
LINE
  8
0
 62
     0
 10
143.632
 20
77.7353
 30
0.0
 11
143.745
 21
77.7035
 31
0.0
  0
LINE
  8
0
 62
     0
 10
143.745
 20
77.7035
 30
0.0
 11
143.86
 21
77.6799
 31
0.0
  0
LINE
  8
0
 62
     0
 10
143.86
 20
77.6799
 30
0.0
 11
143.977
 21
77.6661
 31
0.0
  0
LINE
  8
0
 62
     0
 10
143.977
 20
77.6661
 30
0.0
 11
144.096
 21
77.6609
 31
0.0
  0
LINE
  8
0
 62
     0
 10
144.096
 20
77.6609
 30
0.0
 11
144.213
 21
77.6661
 31
0.0
  0
LINE
  8
0
 62
     0
 10
144.213
 20
77.6661
 30
0.0
 11
144.329
 21
77.6799
 31
0.0
  0
LINE
  8
0
 62
     0
 10
144.329
 20
77.6799
 30
0.0
 11
144.446
 21
77.7035
 31
0.0
  0
LINE
  8
0
 62
     0
 10
144.446
 20
77.7035
 30
0.0
 11
144.559
 21
77.7353
 31
0.0
  0
LINE
  8
0
 62
     0
 10
144.559
 20
77.7353
 30
0.0
 11
144.669
 21
77.7766
 31
0.0
  0
LINE
  8
0
 62
     0
 10
144.669
 20
77.7766
 30
0.0
 11
144.775
 21
77.8245
 31
0.0
  0
LINE
  8
0
 62
     0
 10
144.775
 20
77.8245
 30
0.0
 11
144.879
 21
77.8828
 31
0.0
  0
LINE
  8
0
 62
     0
 10
144.879
 20
77.8828
 30
0.0
 11
144.976
 21
77.9487
 31
0.0
  0
LINE
  8
0
 62
     0
 10
144.976
 20
77.9487
 30
0.0
 11
145.069
 21
78.0203
 31
0.0
  0
LINE
  8
0
 62
     0
 10
145.069
 20
78.0203
 30
0.0
 11
145.156
 21
78.1018
 31
0.0
  0
LINE
  8
0
 62
     0
 10
145.156
 20
78.1018
 30
0.0
 11
145.235
 21
78.1872
 31
0.0
  0
LINE
  8
0
 62
     0
 10
145.235
 20
78.1872
 30
0.0
 11
145.308
 21
78.2796
 31
0.0
  0
LINE
  8
0
 62
     0
 10
145.308
 20
78.2796
 30
0.0
 11
145.373
 21
78.3788
 31
0.0
  0
LINE
  8
0
 62
     0
 10
145.373
 20
78.3788
 30
0.0
 11
145.431
 21
78.4807
 31
0.0
  0
LINE
  8
0
 62
     0
 10
145.431
 20
78.4807
 30
0.0
 11
145.481
 21
78.5869
 31
0.0
  0
LINE
  8
0
 62
     0
 10
145.481
 20
78.5869
 30
0.0
 11
145.521
 21
78.6984
 31
0.0
  0
LINE
  8
0
 62
     0
 10
145.521
 20
78.6984
 30
0.0
 11
145.554
 21
78.8113
 31
0.0
  0
LINE
  8
0
 62
     0
 10
145.554
 20
78.8113
 30
0.0
 11
145.576
 21
78.927
 31
0.0
  0
LINE
  8
0
 62
     0
 10
145.576
 20
78.927
 30
0.0
 11
145.591
 21
79.0444
 31
0.0
  0
LINE
  8
0
 62
     0
 10
145.591
 20
79.0444
 30
0.0
 11
145.595
 21
79.1616
 31
0.0
  0
LINE
  8
0
 62
     0
 10
145.595
 20
79.1616
 30
0.0
 11
145.591
 21
79.2787
 31
0.0
  0
LINE
  8
0
 62
     0
 10
145.591
 20
79.2787
 30
0.0
 11
145.576
 21
79.3958
 31
0.0
  0
LINE
  8
0
 62
     0
 10
145.576
 20
79.3958
 30
0.0
 11
145.554
 21
79.5115
 31
0.0
  0
LINE
  8
0
 62
     0
 10
145.554
 20
79.5115
 30
0.0
 11
145.521
 21
79.6244
 31
0.0
  0
LINE
  8
0
 62
     0
 10
145.521
 20
79.6244
 30
0.0
 11
145.481
 21
79.7359
 31
0.0
  0
LINE
  8
0
 62
     0
 10
145.481
 20
79.7359
 30
0.0
 11
145.431
 21
79.8421
 31
0.0
  0
LINE
  8
0
 62
     0
 10
145.431
 20
79.8421
 30
0.0
 11
145.373
 21
79.9454
 31
0.0
  0
LINE
  8
0
 62
     0
 10
145.373
 20
79.9454
 30
0.0
 11
145.308
 21
80.0435
 31
0.0
  0
LINE
  8
0
 62
     0
 10
145.308
 20
80.0435
 30
0.0
 11
145.235
 21
80.1356
 31
0.0
  0
LINE
  8
0
 62
     0
 10
145.235
 20
80.1356
 30
0.0
 11
145.156
 21
80.2224
 31
0.0
  0
LINE
  8
0
 62
     0
 10
145.156
 20
80.2224
 30
0.0
 11
145.069
 21
80.3025
 31
0.0
  0
LINE
  8
0
 62
     0
 10
145.069
 20
80.3025
 30
0.0
 11
144.976
 21
80.3755
 31
0.0
  0
LINE
  8
0
 62
     0
 10
144.976
 20
80.3755
 30
0.0
 11
144.879
 21
80.4404
 31
0.0
  0
LINE
  8
0
 62
     0
 10
144.879
 20
80.4404
 30
0.0
 11
144.775
 21
80.4982
 31
0.0
  0
LINE
  8
0
 62
     0
 10
144.775
 20
80.4982
 30
0.0
 11
144.669
 21
80.5476
 31
0.0
  0
LINE
  8
0
 62
     0
 10
144.669
 20
80.5476
 30
0.0
 11
144.559
 21
80.5879
 31
0.0
  0
LINE
  8
0
 62
     0
 10
144.559
 20
80.5879
 30
0.0
 11
144.446
 21
80.6207
 31
0.0
  0
LINE
  8
0
 62
     0
 10
144.446
 20
80.6207
 30
0.0
 11
144.329
 21
80.6429
 31
0.0
  0
LINE
  8
0
 62
     0
 10
144.329
 20
80.6429
 30
0.0
 11
144.213
 21
80.6566
 31
0.0
  0
LINE
  8
0
 62
     0
 10
144.213
 20
80.6566
 30
0.0
 11
144.096
 21
80.6609
 31
0.0
  0
LINE
  8
0
 62
     0
 10
144.096
 20
80.6609
 30
0.0
 11
143.977
 21
80.6566
 31
0.0
  0
ENDSEC
  0
EOF
