<?xml version="1.0"?>
<!-- Generated by SVGo -->
<svg width="158.001mm" height="93.001mm"
     viewBox="0.000 0.000 158.001 93.001"
     xmlns="http://www.w3.org/2000/svg" 
     xmlns:xlink="http://www.w3.org/1999/xlink">
<polygon points="5.000,48.001 5.000,5.000 153.001,5.000 153.001,48.001 130.001,88.001 28.000,88.001" style="fill:none;stroke-width:0.050000mm;stroke:black"/>
<polygon points="43.500,68.325 43.500,69.325 42.699,69.325 42.699,72.275 43.500,72.275 43.500,73.025 41.824,73.025 41.824,69.795 40.099,69.795 40.099,68.875 36.949,68.875 36.949,69.795 35.224,69.795 35.224,73.025 34.399,73.025 34.399,75.675 35.224,75.675 35.224,81.945 36.949,81.945 36.949,82.925 40.099,82.925 40.099,81.945 41.824,81.945 41.824,77.475 43.500,77.475 43.500,78.225 42.699,78.225 42.699,81.175 43.500,81.175 43.500,82.175 57.349,82.175 57.349,81.175 58.150,81.175 58.150,78.225 57.349,78.225 57.349,77.475 59.025,77.475 59.025,81.945 60.750,81.945 60.750,82.925 63.900,82.925 63.900,81.945 65.625,81.945 65.625,75.675 66.450,75.675 66.450,73.025 65.625,73.025 65.625,69.795 63.900,69.795 63.900,68.875 60.750,68.875 60.750,69.795 59.025,69.795 59.025,73.025 57.349,73.025 57.349,72.275 58.150,72.275 58.150,69.325 57.349,69.325 57.349,68.325" style="fill:none;stroke-width:0.050000mm;stroke:black"/>
<polygon points="100.650,68.325 100.650,69.325 99.850,69.325 99.850,72.275 100.650,72.275 100.650,73.025 98.975,73.025 98.975,69.795 97.250,69.795 97.250,68.875 94.100,68.875 94.100,69.795 92.375,69.795 92.375,73.025 91.550,73.025 91.550,75.675 92.375,75.675 92.375,81.945 94.100,81.945 94.100,82.925 97.250,82.925 97.250,81.945 98.975,81.945 98.975,77.475 100.650,77.475 100.650,78.225 99.850,78.225 99.850,81.175 100.650,81.175 100.650,82.175 114.500,82.175 114.500,81.175 115.300,81.175 115.300,78.225 114.500,78.225 114.500,77.475 116.175,77.475 116.175,81.945 117.900,81.945 117.900,82.925 121.050,82.925 121.050,81.945 122.775,81.945 122.775,75.675 123.600,75.675 123.600,73.025 122.775,73.025 122.775,69.795 121.050,69.795 121.050,68.875 117.900,68.875 117.900,69.795 116.175,69.795 116.175,73.025 114.500,73.025 114.500,72.275 115.300,72.275 115.300,69.325 114.500,69.325 114.500,68.325" style="fill:none;stroke-width:0.050000mm;stroke:black"/>
<polygon points="72.075,68.325 72.075,69.325 71.275,69.325 71.275,72.275 72.075,72.275 72.075,78.225 71.275,78.225 71.275,81.175 72.075,81.175 72.075,82.175 85.925,82.175 85.925,81.175 86.725,81.175 86.725,78.225 85.925,78.225 85.925,72.275 86.725,72.275 86.725,69.325 85.925,69.325 85.925,68.325" style="fill:none;stroke-width:0.050000mm;stroke:black"/>
<polygon points="23.882,70.504 23.765,70.518 23.649,70.541 23.536,70.573 23.425,70.614 23.319,70.663 23.216,70.721 23.118,70.786 23.025,70.859 22.939,70.939 22.859,71.025 22.786,71.118 22.721,71.216 22.663,71.319 22.614,71.425 22.573,71.536 22.541,71.649 22.518,71.765 22.504,71.882 22.499,72.000 22.504,72.117 22.518,72.234 22.541,72.350 22.573,72.463 22.614,72.574 22.663,72.680 22.721,72.783 22.786,72.881 22.859,72.974 22.939,73.060 23.025,73.140 23.118,73.213 23.216,73.278 23.319,73.336 23.425,73.385 23.536,73.426 23.649,73.458 23.765,73.481 23.882,73.495 24.000,73.500 24.117,73.495 24.234,73.481 24.350,73.458 24.463,73.426 24.574,73.385 24.680,73.336 24.783,73.278 24.881,73.213 24.974,73.140 25.060,73.060 25.140,72.974 25.213,72.881 25.278,72.783 25.336,72.680 25.385,72.574 25.426,72.463 25.458,72.350 25.481,72.234 25.495,72.117 25.500,72.000 25.495,71.882 25.481,71.765 25.458,71.649 25.426,71.536 25.385,71.425 25.336,71.319 25.278,71.216 25.213,71.118 25.140,71.025 25.060,70.939 24.974,70.859 24.881,70.786 24.783,70.721 24.680,70.663 24.574,70.614 24.463,70.573 24.350,70.541 24.234,70.518 24.117,70.504 24.000,70.500" style="fill:none;stroke-width:0.050000mm;stroke:black"/>
<polygon points="133.883,70.504 133.766,70.518 133.650,70.541 133.537,70.573 133.426,70.614 133.320,70.663 133.217,70.721 133.119,70.786 133.026,70.859 132.940,70.939 132.860,71.025 132.787,71.118 132.722,71.216 132.664,71.319 132.615,71.425 132.574,71.536 132.542,71.649 132.519,71.765 132.505,71.882 132.501,72.000 132.505,72.117 132.519,72.234 132.542,72.350 132.574,72.463 132.615,72.574 132.664,72.680 132.722,72.783 132.787,72.881 132.860,72.974 132.940,73.060 133.026,73.140 133.119,73.213 133.217,73.278 133.320,73.336 133.426,73.385 133.537,73.426 133.650,73.458 133.766,73.481 133.883,73.495 134.001,73.500 134.118,73.495 134.235,73.481 134.351,73.458 134.464,73.426 134.575,73.385 134.681,73.336 134.784,73.278 134.882,73.213 134.975,73.140 135.061,73.060 135.141,72.974 135.214,72.881 135.279,72.783 135.337,72.680 135.386,72.574 135.427,72.463 135.459,72.350 135.482,72.234 135.496,72.117 135.501,72.000 135.496,71.882 135.482,71.765 135.459,71.649 135.427,71.536 135.386,71.425 135.337,71.319 135.279,71.216 135.214,71.118 135.141,71.025 135.061,70.939 134.975,70.859 134.882,70.786 134.784,70.721 134.681,70.663 134.575,70.614 134.464,70.573 134.351,70.541 134.235,70.518 134.118,70.504 134.001,70.500" style="fill:none;stroke-width:0.050000mm;stroke:black"/>
<polygon points="31.593,49.275 31.593,50.275 30.793,50.275 30.793,53.225 31.593,53.225 31.593,59.175 30.793,59.175 30.793,62.125 31.593,62.125 31.593,63.125 45.443,63.125 45.443,62.125 46.243,62.125 46.243,59.175 45.443,59.175 45.443,53.225 46.243,53.225 46.243,50.275 45.443,50.275 45.443,49.275" style="fill:none;stroke-width:0.050000mm;stroke:black"/>
<polygon points="53.025,49.275 53.025,50.275 52.224,50.275 52.224,53.225 53.025,53.225 53.025,59.175 52.224,59.175 52.224,62.125 53.025,62.125 53.025,63.125 66.875,63.125 66.875,62.125 67.675,62.125 67.675,59.175 66.875,59.175 66.875,53.225 67.675,53.225 67.675,50.275 66.875,50.275 66.875,49.275" style="fill:none;stroke-width:0.050000mm;stroke:black"/>
<polygon points="72.075,49.275 72.075,50.275 71.275,50.275 71.275,53.225 72.075,53.225 72.075,59.175 71.275,59.175 71.275,62.125 72.075,62.125 72.075,63.125 85.925,63.125 85.925,62.125 86.725,62.125 86.725,59.175 85.925,59.175 85.925,53.225 86.725,53.225 86.725,50.275 85.925,50.275 85.925,49.275" style="fill:none;stroke-width:0.050000mm;stroke:black"/>
<polygon points="91.125,49.275 91.125,50.275 90.325,50.275 90.325,53.225 91.125,53.225 91.125,59.175 90.325,59.175 90.325,62.125 91.125,62.125 91.125,63.125 104.975,63.125 104.975,62.125 105.774,62.125 105.774,59.175 104.975,59.175 104.975,53.225 105.774,53.225 105.774,50.275 104.975,50.275 104.975,49.275" style="fill:none;stroke-width:0.050000mm;stroke:black"/>
<polygon points="112.556,49.275 112.556,50.275 111.756,50.275 111.756,53.225 112.556,53.225 112.556,59.175 111.756,59.175 111.756,62.125 112.556,62.125 112.556,63.125 126.406,63.125 126.406,62.125 127.206,62.125 127.206,59.175 126.406,59.175 126.406,53.225 127.206,53.225 127.206,50.275 126.406,50.275 126.406,49.275" style="fill:none;stroke-width:0.050000mm;stroke:black"/>
<polygon points="14.925,30.225 14.925,31.225 14.125,31.225 14.125,34.175 14.925,34.175 14.925,40.125 14.125,40.125 14.125,43.075 14.925,43.075 14.925,44.075 28.775,44.075 28.775,43.075 29.575,43.075 29.575,40.125 28.775,40.125 28.775,34.175 29.575,34.175 29.575,31.225 28.775,31.225 28.775,30.225" style="fill:none;stroke-width:0.050000mm;stroke:black"/>
<polygon points="33.975,30.225 33.975,31.225 33.175,31.225 33.175,34.175 33.975,34.175 33.975,40.125 33.175,40.125 33.175,43.075 33.975,43.075 33.975,44.075 47.825,44.075 47.825,43.075 48.625,43.075 48.625,40.125 47.825,40.125 47.825,34.175 48.625,34.175 48.625,31.225 47.825,31.225 47.825,30.225" style="fill:none;stroke-width:0.050000mm;stroke:black"/>
<polygon points="53.025,30.225 53.025,31.225 52.225,31.225 52.225,34.175 53.025,34.175 53.025,40.125 52.225,40.125 52.225,43.075 53.025,43.075 53.025,44.075 66.875,44.075 66.875,43.075 67.675,43.075 67.675,40.125 66.875,40.125 66.875,34.175 67.675,34.175 67.675,31.225 66.875,31.225 66.875,30.225" style="fill:none;stroke-width:0.050000mm;stroke:black"/>
<polygon points="72.075,30.225 72.075,31.225 71.275,31.225 71.275,34.175 72.075,34.175 72.075,40.125 71.275,40.125 71.275,43.075 72.075,43.075 72.075,44.075 85.925,44.075 85.925,43.075 86.725,43.075 86.725,40.125 85.925,40.125 85.925,34.175 86.725,34.175 86.725,31.225 85.925,31.225 85.925,30.225" style="fill:none;stroke-width:0.050000mm;stroke:black"/>
<polygon points="91.125,30.225 91.125,31.225 90.325,31.225 90.325,34.175 91.125,34.175 91.125,40.125 90.325,40.125 90.325,43.075 91.125,43.075 91.125,44.075 104.975,44.075 104.975,43.075 105.774,43.075 105.774,40.125 104.975,40.125 104.975,34.175 105.774,34.175 105.774,31.225 104.975,31.225 104.975,30.225" style="fill:none;stroke-width:0.050000mm;stroke:black"/>
<polygon points="110.175,30.225 110.175,31.225 109.375,31.225 109.375,34.175 110.175,34.175 110.175,40.125 109.375,40.125 109.375,43.075 110.175,43.075 110.175,44.075 124.024,44.075 124.024,43.075 124.824,43.075 124.824,40.125 124.024,40.125 124.024,34.175 124.824,34.175 124.824,31.225 124.024,31.225 124.024,30.225" style="fill:none;stroke-width:0.050000mm;stroke:black"/>
<polygon points="129.225,30.225 129.225,31.225 128.425,31.225 128.425,34.175 129.225,34.175 129.225,40.125 128.425,40.125 128.425,43.075 129.225,43.075 129.225,44.075 143.075,44.075 143.075,43.075 143.875,43.075 143.875,40.125 143.075,40.125 143.075,34.175 143.875,34.175 143.875,31.225 143.075,31.225 143.075,30.225" style="fill:none;stroke-width:0.050000mm;stroke:black"/>
<polygon points="14.925,11.175 14.925,12.175 14.125,12.175 14.125,15.125 14.925,15.125 14.925,21.075 14.125,21.075 14.125,24.025 14.925,24.025 14.925,25.025 28.775,25.025 28.775,24.025 29.575,24.025 29.575,21.075 28.775,21.075 28.775,15.125 29.575,15.125 29.575,12.175 28.775,12.175 28.775,11.175" style="fill:none;stroke-width:0.050000mm;stroke:black"/>
<polygon points="33.975,11.175 33.975,12.175 33.175,12.175 33.175,15.125 33.975,15.125 33.975,21.075 33.175,21.075 33.175,24.025 33.975,24.025 33.975,25.025 47.825,25.025 47.825,24.025 48.625,24.025 48.625,21.075 47.825,21.075 47.825,15.125 48.625,15.125 48.625,12.175 47.825,12.175 47.825,11.175" style="fill:none;stroke-width:0.050000mm;stroke:black"/>
<polygon points="53.025,11.175 53.025,12.175 52.225,12.175 52.225,15.125 53.025,15.125 53.025,21.075 52.225,21.075 52.225,24.025 53.025,24.025 53.025,25.025 66.875,25.025 66.875,24.025 67.675,24.025 67.675,21.075 66.875,21.075 66.875,15.125 67.675,15.125 67.675,12.175 66.875,12.175 66.875,11.175" style="fill:none;stroke-width:0.050000mm;stroke:black"/>
<polygon points="72.075,11.175 72.075,12.175 71.275,12.175 71.275,15.125 72.075,15.125 72.075,21.075 71.275,21.075 71.275,24.025 72.075,24.025 72.075,25.025 85.925,25.025 85.925,24.025 86.725,24.025 86.725,21.075 85.925,21.075 85.925,15.125 86.725,15.125 86.725,12.175 85.925,12.175 85.925,11.175" style="fill:none;stroke-width:0.050000mm;stroke:black"/>
<polygon points="91.125,11.175 91.125,12.175 90.325,12.175 90.325,15.125 91.125,15.125 91.125,21.075 90.325,21.075 90.325,24.025 91.125,24.025 91.125,25.025 104.975,25.025 104.975,24.025 105.774,24.025 105.774,21.075 104.975,21.075 104.975,15.125 105.774,15.125 105.774,12.175 104.975,12.175 104.975,11.175" style="fill:none;stroke-width:0.050000mm;stroke:black"/>
<polygon points="110.175,11.175 110.175,12.175 109.375,12.175 109.375,15.125 110.175,15.125 110.175,21.075 109.375,21.075 109.375,24.025 110.175,24.025 110.175,25.025 124.024,25.025 124.024,24.025 124.824,24.025 124.824,21.075 124.024,21.075 124.024,15.125 124.824,15.125 124.824,12.175 124.024,12.175 124.024,11.175" style="fill:none;stroke-width:0.050000mm;stroke:black"/>
<polygon points="129.225,11.175 129.225,12.175 128.425,12.175 128.425,15.125 129.225,15.125 129.225,21.075 128.425,21.075 128.425,24.025 129.225,24.025 129.225,25.025 143.075,25.025 143.075,24.025 143.875,24.025 143.875,21.075 143.075,21.075 143.075,15.125 143.875,15.125 143.875,12.175 143.075,12.175 143.075,11.175" style="fill:none;stroke-width:0.050000mm;stroke:black"/>
<polygon points="8.882,7.504 8.765,7.518 8.649,7.541 8.536,7.573 8.425,7.614 8.319,7.663 8.216,7.721 8.118,7.786 8.025,7.859 7.939,7.939 7.859,8.025 7.786,8.118 7.721,8.216 7.663,8.319 7.614,8.425 7.573,8.536 7.541,8.649 7.518,8.765 7.504,8.882 7.499,9.000 7.504,9.117 7.518,9.234 7.541,9.350 7.573,9.463 7.614,9.574 7.663,9.680 7.721,9.783 7.786,9.881 7.859,9.974 7.939,10.060 8.025,10.140 8.118,10.213 8.216,10.278 8.319,10.336 8.425,10.385 8.536,10.426 8.649,10.458 8.765,10.481 8.882,10.495 8.999,10.500 9.117,10.495 9.234,10.481 9.350,10.458 9.463,10.426 9.574,10.385 9.680,10.336 9.783,10.278 9.881,10.213 9.974,10.140 10.060,10.060 10.140,9.974 10.213,9.881 10.278,9.783 10.336,9.680 10.385,9.574 10.426,9.463 10.458,9.350 10.481,9.234 10.495,9.117 10.500,9.000 10.495,8.882 10.481,8.765 10.458,8.649 10.426,8.536 10.385,8.425 10.336,8.319 10.278,8.216 10.213,8.118 10.140,8.025 10.060,7.939 9.974,7.859 9.881,7.786 9.783,7.721 9.680,7.663 9.574,7.614 9.463,7.573 9.350,7.541 9.234,7.518 9.117,7.504 9.000,7.500" style="fill:none;stroke-width:0.050000mm;stroke:black"/>
<polygon points="148.883,7.504 148.766,7.518 148.650,7.541 148.537,7.573 148.426,7.614 148.320,7.663 148.217,7.721 148.119,7.786 148.026,7.859 147.940,7.939 147.860,8.025 147.787,8.118 147.722,8.216 147.664,8.319 147.615,8.425 147.574,8.536 147.542,8.649 147.519,8.765 147.505,8.882 147.501,9.000 147.505,9.117 147.519,9.234 147.542,9.350 147.574,9.463 147.615,9.574 147.664,9.680 147.722,9.783 147.787,9.881 147.860,9.974 147.940,10.060 148.026,10.140 148.119,10.213 148.217,10.278 148.320,10.336 148.426,10.385 148.537,10.426 148.650,10.458 148.766,10.481 148.883,10.495 149.001,10.500 149.118,10.495 149.235,10.481 149.351,10.458 149.464,10.426 149.575,10.385 149.681,10.336 149.784,10.278 149.882,10.213 149.975,10.140 150.061,10.060 150.141,9.974 150.214,9.881 150.279,9.783 150.337,9.680 150.386,9.574 150.427,9.463 150.459,9.350 150.482,9.234 150.496,9.117 150.501,9.000 150.496,8.882 150.482,8.765 150.459,8.649 150.427,8.536 150.386,8.425 150.337,8.319 150.279,8.216 150.214,8.118 150.141,8.025 150.061,7.939 149.975,7.859 149.882,7.786 149.784,7.721 149.681,7.663 149.575,7.614 149.464,7.573 149.351,7.541 149.235,7.518 149.118,7.504 149.001,7.500" style="fill:none;stroke-width:0.050000mm;stroke:black"/>
</svg>
